<svg xmlns="http://www.w3.org/2000/svg" viewBox="0 0 200 200" width="200" height="200">
  <defs>
    <!-- Gradients for color enhancement -->
    <linearGradient id="blueGradient" x1="0%" y1="0%" x2="100%" y2="100%">
      <stop offset="0%" stop-color="#1E3A8A" />
      <stop offset="100%" stop-color="#3B82F6" />
    </linearGradient>
    
    <linearGradient id="nodeGradient" x1="0%" y1="0%" x2="100%" y2="100%">
      <stop offset="0%" stop-color="#1E40AF" />
      <stop offset="100%" stop-color="#60A5FA" />
    </linearGradient>
    
    <!-- Animation for subtle movement effect -->
    <animate xlink:href="#global-circle" attributeName="r" from="96" to="98" dur="4s" repeatCount="indefinite" />
    
    <!-- Filters for glow effects -->
    <filter id="glow" x="-20%" y="-20%" width="140%" height="140%">
      <feGaussianBlur stdDeviation="2" result="blur" />
      <feComposite in="SourceGraphic" in2="blur" operator="over" />
    </filter>
  </defs>
  
  <!-- Outer circle representing global scope -->
  <circle id="global-circle" cx="100" cy="100" r="96" stroke="url(#blueGradient)" stroke-width="2.5" fill="white" filter="url(#glow)">
    <!-- Animation suggestion for implementation in CSS -->
    <!-- This would create a gentle "breathing" effect -->
    <animate attributeName="r" values="96;98;96" dur="6s" repeatCount="indefinite" />
  </circle>
  
  <!-- Global core (center) -->
  <circle cx="100" cy="100" r="8" fill="url(#nodeGradient)">
    <!-- Subtle pulse animation -->
    <animate attributeName="r" values="8;8.5;8" dur="3s" repeatCount="indefinite" />
  </circle>
  
  <!-- National level (inner circle) -->
  <circle cx="100" cy="100" r="40" stroke="#2563EB" stroke-width="1" stroke-opacity="0.8" stroke-dasharray="2 2" fill="none">
    <animate attributeName="stroke-opacity" values="0.8;0.6;0.8" dur="8s" repeatCount="indefinite" />
  </circle>
  
  <!-- 5 National nodes -->
  <circle cx="116" cy="64" r="6" fill="url(#nodeGradient)" fill-opacity="0.9" />
  <circle cx="60" cy="90" r="6" fill="url(#nodeGradient)" fill-opacity="0.9" />
  <circle cx="80" cy="144" r="6" fill="url(#nodeGradient)" fill-opacity="0.9" />
  <circle cx="144" cy="124" r="6" fill="url(#nodeGradient)" fill-opacity="0.9" />
  <circle cx="140" cy="70" r="6" fill="url(#nodeGradient)" fill-opacity="0.9" />
  
  <!-- Global to National connections -->
  <line x1="106" y1="86" x2="116" y2="64" stroke="url(#blueGradient)" stroke-width="1.2" stroke-opacity="0.8" />
  <line x1="90" y1="94" x2="60" y2="90" stroke="url(#blueGradient)" stroke-width="1.2" stroke-opacity="0.8" />
  <line x1="94" y1="112" x2="80" y2="144" stroke="url(#blueGradient)" stroke-width="1.2" stroke-opacity="0.8" />
  <line x1="112" y1="108" x2="144" y2="124" stroke="url(#blueGradient)" stroke-width="1.2" stroke-opacity="0.8" />
  <line x1="110" y1="88" x2="140" y2="70" stroke="url(#blueGradient)" stroke-width="1.2" stroke-opacity="0.8" />
  
  <!-- Regional level -->
  <circle cx="100" cy="100" r="68" stroke="#3B82F6" stroke-width="1" stroke-opacity="0.6" stroke-dasharray="3 3" fill="none">
    <animate attributeName="stroke-opacity" values="0.6;0.4;0.6" dur="10s" repeatCount="indefinite" />
  </circle>
  
  <!-- Regional nodes connected to Nations -->
  <!-- Nation 1 regions -->
  <circle cx="124" cy="40" r="4" fill="#60A5FA" fill-opacity="0.8" />
  <circle cx="104" cy="36" r="4" fill="#60A5FA" fill-opacity="0.8" />
  <circle cx="136" cy="54" r="4" fill="#60A5FA" fill-opacity="0.8" />
  
  <!-- Nation 2 regions -->
  <circle cx="44" cy="76" r="4" fill="#60A5FA" fill-opacity="0.8" />
  <circle cx="32" cy="96" r="4" fill="#60A5FA" fill-opacity="0.8" />
  <circle cx="40" cy="116" r="4" fill="#60A5FA" fill-opacity="0.8" />
  
  <!-- Nation 3 regions -->
  <circle cx="56" cy="152" r="4" fill="#60A5FA" fill-opacity="0.8" />
  <circle cx="76" cy="168" r="4" fill="#60A5FA" fill-opacity="0.8" />
  <circle cx="100" cy="156" r="4" fill="#60A5FA" fill-opacity="0.8" />
  
  <!-- Nation 4 regions -->
  <circle cx="166" cy="136" r="4" fill="#60A5FA" fill-opacity="0.8" />
  <circle cx="154" cy="104" r="4" fill="#60A5FA" fill-opacity="0.8" />
  <circle cx="168" cy="116" r="4" fill="#60A5FA" fill-opacity="0.8" />
  
  <!-- Nation 5 regions -->
  <circle cx="156" cy="60" r="4" fill="#60A5FA" fill-opacity="0.8" />
  <circle cx="164" cy="80" r="4" fill="#60A5FA" fill-opacity="0.8" />
  <circle cx="144" cy="44" r="4" fill="#60A5FA" fill-opacity="0.8" />
  
  <!-- National to Regional connections -->
  <line x1="116" y1="64" x2="124" y2="40" stroke="#3B82F6" stroke-width="0.8" stroke-opacity="0.7" />
  <line x1="116" y1="64" x2="104" y2="36" stroke="#3B82F6" stroke-width="0.8" stroke-opacity="0.7" />
  <line x1="116" y1="64" x2="136" y2="54" stroke="#3B82F6" stroke-width="0.8" stroke-opacity="0.7" />
  
  <line x1="60" y1="90" x2="44" y2="76" stroke="#3B82F6" stroke-width="0.8" stroke-opacity="0.7" />
  <line x1="60" y1="90" x2="32" y2="96" stroke="#3B82F6" stroke-width="0.8" stroke-opacity="0.7" />
  <line x1="60" y1="90" x2="40" y2="116" stroke="#3B82F6" stroke-width="0.8" stroke-opacity="0.7" />
  
  <line x1="80" y1="144" x2="56" y2="152" stroke="#3B82F6" stroke-width="0.8" stroke-opacity="0.7" />
  <line x1="80" y1="144" x2="76" y2="168" stroke="#3B82F6" stroke-width="0.8" stroke-opacity="0.7" />
  <line x1="80" y1="144" x2="100" y2="156" stroke="#3B82F6" stroke-width="0.8" stroke-opacity="0.7" />
  
  <line x1="144" y1="124" x2="166" y2="136" stroke="#3B82F6" stroke-width="0.8" stroke-opacity="0.7" />
  <line x1="144" y1="124" x2="154" y2="104" stroke="#3B82F6" stroke-width="0.8" stroke-opacity="0.7" />
  <line x1="144" y1="124" x2="168" y2="116" stroke="#3B82F6" stroke-width="0.8" stroke-opacity="0.7" />
  
  <line x1="140" y1="70" x2="156" y2="60" stroke="#3B82F6" stroke-width="0.8" stroke-opacity="0.7" />
  <line x1="140" y1="70" x2="164" y2="80" stroke="#3B82F6" stroke-width="0.8" stroke-opacity="0.7" />
  <line x1="140" y1="70" x2="144" y2="44" stroke="#3B82F6" stroke-width="0.8" stroke-opacity="0.7" />
  
  <!-- Local nodes - small dots at the edge (reduced number for clarity) -->
  <circle cx="136" cy="22" r="2" fill="#93C5FD" fill-opacity="0.6" />
  <circle cx="116" cy="16" r="2" fill="#93C5FD" fill-opacity="0.6" />
  <circle cx="96" cy="14" r="2" fill="#93C5FD" fill-opacity="0.6" />
  <circle cx="152" cy="28" r="2" fill="#93C5FD" fill-opacity="0.6" />
  <circle cx="164" cy="40" r="2" fill="#93C5FD" fill-opacity="0.6" />
  <circle cx="174" cy="56" r="2" fill="#93C5FD" fill-opacity="0.6" />
  <circle cx="182" cy="76" r="2" fill="#93C5FD" fill-opacity="0.6" />
  <circle cx="186" cy="96" r="2" fill="#93C5FD" fill-opacity="0.6" />
  <circle cx="184" cy="116" r="2" fill="#93C5FD" fill-opacity="0.6" />
  <circle cx="180" cy="136" r="2" fill="#93C5FD" fill-opacity="0.6" />
  <circle cx="172" cy="156" r="2" fill="#93C5FD" fill-opacity="0.6" />
  <circle cx="160" cy="170" r="2" fill="#93C5FD" fill-opacity="0.6" />
  <circle cx="140" cy="182" r="2" fill="#93C5FD" fill-opacity="0.6" />
  <circle cx="120" cy="186" r="2" fill="#93C5FD" fill-opacity="0.6" />
  <circle cx="100" cy="188" r="2" fill="#93C5FD" fill-opacity="0.6" />
  <circle cx="80" cy="186" r="2" fill="#93C5FD" fill-opacity="0.6" />
  <circle cx="60" cy="180" r="2" fill="#93C5FD" fill-opacity="0.6" />
  <circle cx="42" cy="172" r="2" fill="#93C5FD" fill-opacity="0.6" />
  <circle cx="28" cy="160" r="2" fill="#93C5FD" fill-opacity="0.6" />
  <circle cx="16" cy="144" r="2" fill="#93C5FD" fill-opacity="0.6" />
  <circle cx="24" cy="130" r="2" fill="#93C5FD" fill-opacity="0.6" />
  <circle cx="14" cy="112" r="2" fill="#93C5FD" fill-opacity="0.6" />
  <circle cx="12" cy="90" r="2" fill="#93C5FD" fill-opacity="0.6" />
  <circle cx="16" cy="68" r="2" fill="#93C5FD" fill-opacity="0.6" />
  <circle cx="24" cy="50" r="2" fill="#93C5FD" fill-opacity="0.6" />
  <circle cx="36" cy="34" r="2" fill="#93C5FD" fill-opacity="0.6" />
  <circle cx="52" cy="22" r="2" fill="#93C5FD" fill-opacity="0.6" />
  <circle cx="72" cy="16" r="2" fill="#93C5FD" fill-opacity="0.6" />
  
  <!-- Regional to Local connections (selected representatives) -->
  <line x1="124" y1="40" x2="136" y2="22" stroke="#60A5FA" stroke-width="0.5" stroke-opacity="0.5" />
  <line x1="104" y1="36" x2="96" y2="14" stroke="#60A5FA" stroke-width="0.5" stroke-opacity="0.5" />
  <line x1="144" y1="44" x2="152" y2="28" stroke="#60A5FA" stroke-width="0.5" stroke-opacity="0.5" />
  <line x1="76" y1="168" x2="60" y2="180" stroke="#60A5FA" stroke-width="0.5" stroke-opacity="0.5" />
  <line x1="32" y1="96" x2="12" y2="90" stroke="#60A5FA" stroke-width="0.5" stroke-opacity="0.5" />
  <line x1="166" y1="136" x2="180" y2="136" stroke="#60A5FA" stroke-width="0.5" stroke-opacity="0.5" />
  
  <!-- Subtle spiral element -->
  <path d="M100,100 C120,90 130,110 110,120 C95,128 85,115 90,105 C93,100 105,95 100,100" 
        stroke="#3B82F6" stroke-width="1" fill="none" stroke-opacity="0.4" stroke-linecap="round">
    <animate attributeName="stroke-opacity" values="0.4;0.7;0.4" dur="7s" repeatCount="indefinite" />
  </path>
</svg>
