<svg xmlns="http://www.w3.org/2000/svg" width="100" height="100" viewBox="0 0 100 100" fill="none">
  <!-- Outer circle representing global scope -->
  <circle cx="50" cy="50" r="48" stroke="#1E40AF" stroke-width="2.5" fill="white"/>
  
  <!-- Global core (center) -->
  <circle cx="50" cy="50" r="8" fill="#1E40AF"/>
  
  <!-- National level (inner circle) - fewer nodes (5) -->
  <circle cx="50" cy="50" r="20" stroke="#2563EB" stroke-width="1" stroke-opacity="0.8" stroke-dasharray="2 2" fill="none"/>
  <circle cx="58" cy="32" r="3" fill="#1E40AF" fill-opacity="0.9"/>
  <circle cx="30" cy="45" r="3" fill="#1E40AF" fill-opacity="0.9"/>
  <circle cx="40" cy="72" r="3" fill="#1E40AF" fill-opacity="0.9"/>
  <circle cx="72" cy="62" r="3" fill="#1E40AF" fill-opacity="0.9"/>
  <circle cx="70" cy="35" r="3" fill="#1E40AF" fill-opacity="0.9"/>

  <!-- Global to National connections -->
  <line x1="53" y1="43" x2="58" y2="32" stroke="#1E40AF" stroke-width="1.2" stroke-opacity="0.8"/>
  <line x1="45" y1="47" x2="30" y2="45" stroke="#1E40AF" stroke-width="1.2" stroke-opacity="0.8"/>
  <line x1="47" y1="56" x2="40" y2="72" stroke="#1E40AF" stroke-width="1.2" stroke-opacity="0.8"/>
  <line x1="56" y1="54" x2="72" y2="62" stroke="#1E40AF" stroke-width="1.2" stroke-opacity="0.8"/>
  <line x1="55" y1="44" x2="70" y2="35" stroke="#1E40AF" stroke-width="1.2" stroke-opacity="0.8"/>
  
  <!-- Regional level - more nodes (15) at varied positions -->
  <circle cx="50" cy="50" r="34" stroke="#2563EB" stroke-width="1" stroke-opacity="0.6" stroke-dasharray="3 3" fill="none"/>
  
  <!-- Regions connected to Nation 1 -->
  <circle cx="62" cy="20" r="2.5" fill="#2563EB" fill-opacity="0.8"/>
  <circle cx="52" cy="18" r="2.5" fill="#2563EB" fill-opacity="0.8"/>
  <circle cx="68" cy="27" r="2.5" fill="#2563EB" fill-opacity="0.8"/>
  
  <!-- Regions connected to Nation 2 -->
  <circle cx="22" cy="38" r="2.5" fill="#2563EB" fill-opacity="0.8"/>
  <circle cx="16" cy="48" r="2.5" fill="#2563EB" fill-opacity="0.8"/>
  <circle cx="20" cy="58" r="2.5" fill="#2563EB" fill-opacity="0.8"/>
  
  <!-- Regions connected to Nation 3 -->
  <circle cx="28" cy="76" r="2.5" fill="#2563EB" fill-opacity="0.8"/>
  <circle cx="38" cy="84" r="2.5" fill="#2563EB" fill-opacity="0.8"/>
  <circle cx="50" cy="78" r="2.5" fill="#2563EB" fill-opacity="0.8"/>
  
  <!-- Regions connected to Nation 4 -->
  <circle cx="83" cy="68" r="2.5" fill="#2563EB" fill-opacity="0.8"/>
  <circle cx="77" cy="52" r="2.5" fill="#2563EB" fill-opacity="0.8"/>
  <circle cx="84" cy="58" r="2.5" fill="#2563EB" fill-opacity="0.8"/>
  
  <!-- Regions connected to Nation 5 -->
  <circle cx="78" cy="30" r="2.5" fill="#2563EB" fill-opacity="0.8"/>
  <circle cx="82" cy="40" r="2.5" fill="#2563EB" fill-opacity="0.8"/>
  <circle cx="72" cy="22" r="2.5" fill="#2563EB" fill-opacity="0.8"/>
  
  <!-- National to Regional connections -->
  <line x1="58" y1="32" x2="62" y2="20" stroke="#2563EB" stroke-width="0.8" stroke-opacity="0.7"/>
  <line x1="58" y1="32" x2="52" y2="18" stroke="#2563EB" stroke-width="0.8" stroke-opacity="0.7"/>
  <line x1="58" y1="32" x2="68" y2="27" stroke="#2563EB" stroke-width="0.8" stroke-opacity="0.7"/>
  
  <line x1="30" y1="45" x2="22" y2="38" stroke="#2563EB" stroke-width="0.8" stroke-opacity="0.7"/>
  <line x1="30" y1="45" x2="16" y2="48" stroke="#2563EB" stroke-width="0.8" stroke-opacity="0.7"/>
  <line x1="30" y1="45" x2="20" y2="58" stroke="#2563EB" stroke-width="0.8" stroke-opacity="0.7"/>
  
  <line x1="40" y1="72" x2="28" y2="76" stroke="#2563EB" stroke-width="0.8" stroke-opacity="0.7"/>
  <line x1="40" y1="72" x2="38" y2="84" stroke="#2563EB" stroke-width="0.8" stroke-opacity="0.7"/>
  <line x1="40" y1="72" x2="50" y2="78" stroke="#2563EB" stroke-width="0.8" stroke-opacity="0.7"/>
  
  <line x1="72" y1="62" x2="83" y2="68" stroke="#2563EB" stroke-width="0.8" stroke-opacity="0.7"/>
  <line x1="72" y1="62" x2="77" y2="52" stroke="#2563EB" stroke-width="0.8" stroke-opacity="0.7"/>
  <line x1="72" y1="62" x2="84" y2="58" stroke="#2563EB" stroke-width="0.8" stroke-opacity="0.7"/>
  
  <line x1="70" y1="35" x2="78" y2="30" stroke="#2563EB" stroke-width="0.8" stroke-opacity="0.7"/>
  <line x1="70" y1="35" x2="82" y2="40" stroke="#2563EB" stroke-width="0.8" stroke-opacity="0.7"/>
  <line x1="70" y1="35" x2="72" y2="22" stroke="#2563EB" stroke-width="0.8" stroke-opacity="0.7"/>
  
  <!-- Local level - small dots at the edge (25+) -->
  <circle cx="68" cy="11" r="1.5" fill="#3B82F6" fill-opacity="0.6"/>
  <circle cx="58" cy="8" r="1.5" fill="#3B82F6" fill-opacity="0.6"/>
  <circle cx="48" cy="7" r="1.5" fill="#3B82F6" fill-opacity="0.6"/>
  <circle cx="76" cy="14" r="1.5" fill="#3B82F6" fill-opacity="0.6"/>
  <circle cx="82" cy="20" r="1.5" fill="#3B82F6" fill-opacity="0.6"/>
  <circle cx="87" cy="28" r="1.5" fill="#3B82F6" fill-opacity="0.6"/>
  <circle cx="91" cy="38" r="1.5" fill="#3B82F6" fill-opacity="0.6"/>
  <circle cx="93" cy="48" r="1.5" fill="#3B82F6" fill-opacity="0.6"/>
  <circle cx="92" cy="58" r="1.5" fill="#3B82F6" fill-opacity="0.6"/>
  <circle cx="90" cy="68" r="1.5" fill="#3B82F6" fill-opacity="0.6"/>
  <circle cx="86" cy="78" r="1.5" fill="#3B82F6" fill-opacity="0.6"/>
  <circle cx="80" cy="85" r="1.5" fill="#3B82F6" fill-opacity="0.6"/>
  <circle cx="70" cy="91" r="1.5" fill="#3B82F6" fill-opacity="0.6"/>
  <circle cx="60" cy="93" r="1.5" fill="#3B82F6" fill-opacity="0.6"/>
  <circle cx="50" cy="94" r="1.5" fill="#3B82F6" fill-opacity="0.6"/>
  <circle cx="40" cy="93" r="1.5" fill="#3B82F6" fill-opacity="0.6"/>
  <circle cx="30" cy="90" r="1.5" fill="#3B82F6" fill-opacity="0.6"/>
  <circle cx="21" cy="86" r="1.5" fill="#3B82F6" fill-opacity="0.6"/>
  <circle cx="14" cy="80" r="1.5" fill="#3B82F6" fill-opacity="0.6"/>
  <circle cx="8" cy="72" r="1.5" fill="#3B82F6" fill-opacity="0.6"/>
  <circle cx="12" cy="65" r="1.5" fill="#3B82F6" fill-opacity="0.6"/>
  <circle cx="7" cy="56" r="1.5" fill="#3B82F6" fill-opacity="0.6"/>
  <circle cx="6" cy="45" r="1.5" fill="#3B82F6" fill-opacity="0.6"/>
  <circle cx="8" cy="34" r="1.5" fill="#3B82F6" fill-opacity="0.6"/>
  <circle cx="12" cy="25" r="1.5" fill="#3B82F6" fill-opacity="0.6"/>
  <circle cx="18" cy="17" r="1.5" fill="#3B82F6" fill-opacity="0.6"/>
  <circle cx="26" cy="11" r="1.5" fill="#3B82F6" fill-opacity="0.6"/>
  <circle cx="36" cy="8" r="1.5" fill="#3B82F6" fill-opacity="0.6"/>
  
  <!-- Regional to Local connections (just a few representative ones) -->
  <line x1="62" y1="20" x2="68" y2="11" stroke="#3B82F6" stroke-width="0.5" stroke-opacity="0.5"/>
  <line x1="62" y1="20" x2="58" y2="8" stroke="#3B82F6" stroke-width="0.5" stroke-opacity="0.5"/>
  <line x1="52" y1="18" x2="48" y2="7" stroke="#3B82F6" stroke-width="0.5" stroke-opacity="0.5"/>
  <line x1="22" y1="38" x2="12" y2="25" stroke="#3B82F6" stroke-width="0.5" stroke-opacity="0.5"/>
  <line x1="16" y1="48" x2="6" y2="45" stroke="#3B82F6" stroke-width="0.5" stroke-opacity="0.5"/>
  <line x1="28" y1="76" x2="21" y2="86" stroke="#3B82F6" stroke-width="0.5" stroke-opacity="0.5"/>
  <line x1="38" y1="84" x2="30" y2="90" stroke="#3B82F6" stroke-width="0.5" stroke-opacity="0.5"/>
  <line x1="83" y1="68" x2="90" y2="68" stroke="#3B82F6" stroke-width="0.5" stroke-opacity="0.5"/>
  <line x1="82" y1="40" x2="91" y2="38" stroke="#3B82F6" stroke-width="0.5" stroke-opacity="0.5"/>
</svg>
