<svg width="1080" height="1080" viewBox="0 0 1080 1080" xmlns="http://www.w3.org/2000/svg">
  <!-- Background -->
  <rect width="1080" height="1080" fill="#3c366b" />
  
  <!-- Title -->
  <text x="540" y="120" font-family="Arial, sans-serif" font-size="64" font-weight="bold" text-anchor="middle" fill="#ffffff">Join the Dialogue</text>
  
  <!-- Stylized hand symbol -->
  <path d="M540,300 C590,300 630,330 650,370 C670,410 660,460 640,500 C620,540 580,580 540,600 C500,580 460,540 440,500 C420,460 410,410 430,370 C450,330 490,300 540,300 Z" fill="#6b46c1" />
  <path d="M540,330 C580,330 610,350 625,380 C640,410 635,450 620,480 C605,510 575,540 540,560 C505,540 475,510 460,480 C445,450 440,410 455,380 C470,350 500,330 540,330 Z" fill="#9f7aea" />
  <path d="M540,360 C570,360 590,375 600,395 C610,415 605,440 595,460 C585,480 565,500 540,515 C515,500 495,480 485,460 C475,440 470,415 480,395 C490,375 510,360 540,360 Z" fill="#d6bcfa" />
  
  <!-- Arrow pointing to action steps -->
  <path d="M540,620 L540,700" stroke="#ffffff" stroke-width="6" />
  <path d="M520,680 L540,700 L560,680" stroke="#ffffff" stroke-width="6" fill="none" />
  
  <!-- Action steps -->
  <rect x="140" y="720" width="800" height="240" rx="20" fill="#6b46c1" />
  
  <text x="240" y="785" font-family="Arial, sans-serif" font-size="32" font-weight="bold" text-anchor="middle" fill="#ffffff">1</text>
  <circle cx="240" cy="780" r="30" fill="none" stroke="#ffffff" stroke-width="3" />
  <text x="350" y="785" font-family="Arial, sans-serif" font-size="28" text-anchor="start" fill="#ffffff">Explore the Framework</text>
  
  <text x="240" y="855" font-family="Arial, sans-serif" font-size="32" font-weight="bold" text-anchor="middle" fill="#ffffff">2</text>
  <circle cx="240" cy="850" r="30" fill="none" stroke="#ffffff" stroke-width="3" />
  <text x="350" y="855" font-family="Arial, sans-serif" font-size="28" text-anchor="start" fill="#ffffff">Connect with a Regional Hub</text>
  
  <text x="240" y="925" font-family="Arial, sans-serif" font-size="32" font-weight="bold" text-anchor="middle" fill="#ffffff">3</text>
  <circle cx="240" cy="920" r="30" fill="none" stroke="#ffffff" stroke-width="3" />
  <text x="350" y="925" font-family="Arial, sans-serif" font-size="28" text-anchor="start" fill="#ffffff">Start a Local Dialogue Circle</text>
  
  <!-- Website -->
  <text x="540" y="1030" font-family="Arial, sans-serif" font-size="32" text-anchor="middle" fill="#ffffff">spiritualdialogue@globalgovernanceframework.org</text>
</svg>
