<svg xmlns="http://www.w3.org/2000/svg" width="200" height="200"><path fill="#f5f5f5" d="M0 0h200v200H0z"/><circle cx="100" cy="100" r="96" fill="none" stroke="#000" stroke-width="2.5"/><path stroke="#000" stroke-opacity=".5" stroke-width=".5" d="m76 168-16 12m84-136 8-16"/><circle cx="152.591" cy="27.409" r="3.3" fill-opacity=".6"/><circle cx="100" cy="100" r="40" fill="none" stroke="#000" stroke-dasharray="2 2" stroke-opacity=".8"/><circle cx="100" cy="100" r="68" fill="none" stroke="#000" stroke-dasharray="3 3" stroke-opacity=".6"/><path stroke="#000" stroke-opacity=".8" stroke-width="1.2" d="m106 86 10-22M90 94l-30-4m34 22-14 32m32-36 32 16m-34-36 30-18"/><circle cx="100" cy="100" r="19.584"/><circle cx="136" cy="54" r="4" fill-opacity=".8"/><circle cx="43.291" cy="75.291" r="4.709" fill-opacity=".8"/><circle cx="54.582" cy="152" r="5.418" fill-opacity=".8"/><circle cx="100.355" cy="155.645" r="5.773" fill-opacity=".8"/><circle cx="155.064" cy="102.936" r="5.064" fill-opacity=".8"/><circle cx="168.591" cy="115.409" r="4.591" fill-opacity=".8"/><circle cx="157.891" cy="58.109" r="5.891" fill-opacity=".8"/><circle cx="165.418" cy="79.173" r="5.418" fill-opacity=".8"/><path stroke="#000" stroke-opacity=".7" stroke-width=".8" d="m116 64 8-24m-8 24-12-28m12 28 20-10"/><circle cx="116.236" cy="63.527" r="9.31" fill-opacity=".9"/><path stroke="#000" stroke-opacity=".7" stroke-width=".8" d="M60 90 44 76m16 14-28 6m28-6-20 26"/><circle cx="38.818" cy="117.182" r="5.182" fill-opacity=".8"/><circle cx="59.764" cy="90.473" r="8.6" fill-opacity=".9"/><path stroke="#000" stroke-opacity=".7" stroke-width=".8" d="m80 144-24 8m24-8-4 24m4-24 20 12"/><circle cx="79.882" cy="144.118" r="8.009" fill-opacity=".9"/><path stroke="#000" stroke-opacity=".7" stroke-width=".8" d="m144 124 22 12m-22-12 10-20m-10 20 24-8"/><circle cx="144.118" cy="123.882" r="7.064" fill-opacity=".9"/><path stroke="#000" stroke-opacity=".7" stroke-width=".8" d="m140 70 16-10m-16 10 24 10m-24-10 4-26"/><circle cx="140.236" cy="69.764" r="6.709" fill-opacity=".9"/><circle cx="116" cy="16" r="2" fill-opacity=".6"/><circle cx="95.291" cy="13.291" r="2.709" fill-opacity=".6"/><circle cx="164" cy="40" r="2" fill-opacity=".6"/><circle cx="174" cy="56" r="2" fill-opacity=".6"/><circle cx="182" cy="76" r="2" fill-opacity=".6"/><circle cx="186" cy="96" r="2" fill-opacity=".6"/><circle cx="184" cy="116" r="2" fill-opacity=".6"/><circle cx="181.418" cy="136.236" r="3.418" fill-opacity=".6"/><circle cx="172" cy="156" r="2" fill-opacity=".6"/><circle cx="160" cy="170" r="2" fill-opacity=".6"/><circle cx="140" cy="182" r="2" fill-opacity=".6"/><circle cx="120" cy="186" r="2" fill-opacity=".6"/><circle cx="100" cy="188" r="2" fill-opacity=".6"/><circle cx="80" cy="186" r="2" fill-opacity=".6"/><circle cx="60.827" cy="179.173" r="3.537" fill-opacity=".6"/><circle cx="42" cy="172" r="2" fill-opacity=".6"/><circle cx="28" cy="160" r="2" fill-opacity=".6"/><circle cx="16" cy="144" r="2" fill-opacity=".6"/><circle cx="24" cy="130" r="2" fill-opacity=".6"/><circle cx="14" cy="112" r="2" fill-opacity=".6"/><circle cx="16" cy="68" r="2" fill-opacity=".6"/><circle cx="24" cy="50" r="2" fill-opacity=".6"/><circle cx="36" cy="34" r="2" fill-opacity=".6"/><circle cx="52" cy="22" r="2" fill-opacity=".6"/><circle cx="72" cy="16" r="2" fill-opacity=".6"/><circle cx="123.764" cy="40.236" r="5.182" fill-opacity=".8"/><path stroke="#000" stroke-opacity=".5" stroke-width=".5" d="m124 40 12-18"/><circle cx="137.182" cy="20.818" r="3.182" fill-opacity=".6"/><path stroke="#000" stroke-opacity=".5" stroke-width=".5" d="m104 36-8-22"/><circle cx="103.409" cy="34.7" r="5.3" fill-opacity=".8"/><circle cx="144.236" cy="43.764" r="5.655" fill-opacity=".8"/><circle cx="75.764" cy="167.764" r="5.182" fill-opacity=".8"/><path stroke="#000" stroke-opacity=".5" stroke-width=".5" d="m32 96-20-6"/><circle cx="12.236" cy="89.764" r="3.655" fill-opacity=".6"/><circle cx="32" cy="96" r="6.6" fill-opacity=".8"/><path stroke="#000" stroke-opacity=".5" stroke-width=".5" d="M166 136h14"/><circle cx="166.236" cy="135.764" r="5.655" fill-opacity=".8"/></svg>
