<?xml version="1.0" encoding="UTF-8" standalone="no"?>
<svg
   viewBox="0 0 800 600"
   version="1.1"
   id="svg61"
   sodipodi:docname="climate-action-svg-6.svg"
   inkscape:version="1.4 (e7c3feb100, 2024-10-09)"
   xmlns:inkscape="http://www.inkscape.org/namespaces/inkscape"
   xmlns:sodipodi="http://sodipodi.sourceforge.net/DTD/sodipodi-0.dtd"
   xmlns="http://www.w3.org/2000/svg"
   xmlns:svg="http://www.w3.org/2000/svg">
  <sodipodi:namedview
     id="namedview61"
     pagecolor="#ffffff"
     bordercolor="#000000"
     borderopacity="0.25"
     inkscape:showpageshadow="2"
     inkscape:pageopacity="0.0"
     inkscape:pagecheckerboard="0"
     inkscape:deskcolor="#d1d1d1"
     inkscape:zoom="1.41"
     inkscape:cx="400.35461"
     inkscape:cy="300"
     inkscape:window-width="2520"
     inkscape:window-height="1048"
     inkscape:window-x="0"
     inkscape:window-y="0"
     inkscape:window-maximized="1"
     inkscape:current-layer="svg61" />
  <!-- Background gradient -->
  <defs
     id="defs3">
    <linearGradient
       id="skyGradient"
       x1="0%"
       y1="0%"
       x2="0%"
       y2="100%">
      <stop
         offset="0%"
         style="stop-color:#1a237e;stop-opacity:1"
         id="stop1" />
      <stop
         offset="50%"
         style="stop-color:#3949ab;stop-opacity:1"
         id="stop2" />
      <stop
         offset="100%"
         style="stop-color:#64b5f6;stop-opacity:1"
         id="stop3" />
    </linearGradient>
  </defs>
  <!-- Sky background -->
  <rect
     width="800"
     height="600"
     fill="url(#skyGradient)"
     rx="10"
     ry="10"
     id="rect3" />
  <!-- Stars in the sky -->
  <circle
     cx="100"
     cy="100"
     r="2"
     fill="white"
     id="circle3" />
  <circle
     cx="200"
     cy="50"
     r="1.5"
     fill="white"
     id="circle4" />
  <circle
     cx="300"
     cy="120"
     r="2"
     fill="white"
     id="circle5" />
  <circle
     cx="400"
     cy="70"
     r="1"
     fill="white"
     id="circle6" />
  <circle
     cx="500"
     cy="90"
     r="2"
     fill="white"
     id="circle7" />
  <circle
     cx="600"
     cy="30"
     r="1.5"
     fill="white"
     id="circle8" />
  <circle
     cx="700"
     cy="110"
     r="1"
     fill="white"
     id="circle9" />
  <circle
     cx="150"
     cy="150"
     r="1.5"
     fill="white"
     id="circle10" />
  <circle
     cx="250"
     cy="80"
     r="1"
     fill="white"
     id="circle11" />
  <circle
     cx="350"
     cy="40"
     r="2"
     fill="white"
     id="circle12" />
  <circle
     cx="450"
     cy="120"
     r="1.5"
     fill="white"
     id="circle13" />
  <circle
     cx="550"
     cy="60"
     r="1"
     fill="white"
     id="circle14" />
  <circle
     cx="650"
     cy="140"
     r="2"
     fill="white"
     id="circle15" />
  <circle
     cx="750"
     cy="50"
     r="1.5"
     fill="white"
     id="circle16" />
  <!-- Sun/Moon rising -->
  <circle
     cx="700"
     cy="150"
     r="40"
     fill="#ffeb3b"
     stroke="#fbc02d"
     stroke-width="2"
     id="circle17">
    <animate
       attributeName="cy"
       from="180"
       to="130"
       dur="20s"
       repeatCount="indefinite" />
  </circle>
  <!-- Earth -->
  <circle
     cx="400"
     cy="380"
     r="180"
     fill="#29b6f6"
     stroke="#0288d1"
     stroke-width="5"
     id="circle18" />
  <!-- Continents -->
  <path
     d="M300,260 Q350,240 420,250 Q460,270 490,300 Q510,340 500,380 Q480,410 440,430 Q400,450 350,440 Q310,420 280,390 Q260,350 270,310 Q280,280 300,260"
     fill="#4caf50"
     stroke="#388e3c"
     stroke-width="2"
     id="path18" />
  <path
     d="M350,500 Q390,480 420,490 Q450,510 440,540 Q410,560 380,550 Q360,530 350,500"
     fill="#4caf50"
     stroke="#388e3c"
     stroke-width="2"
     id="path19" />
  <path
     d="M520,320 Q550,310 570,330 Q580,360 560,380 Q530,390 520,370 Q510,340 520,320"
     fill="#4caf50"
     stroke="#388e3c"
     stroke-width="2"
     id="path20" />
  <!-- Cities and sustainable infrastructure -->
  <!-- Renewable Energy -->
  <circle
     cx="370"
     cy="290"
     r="8"
     fill="#c5e1a5"
     stroke="#7cb342"
     stroke-width="1"
     id="circle20" />
  <!-- Wind turbine -->
  <line
     x1="370"
     y1="280"
     x2="370"
     y2="295"
     stroke="#7cb342"
     stroke-width="2"
     id="line20" />
  <path
     d="M370,280 L380,270 L360,270 Z"
     fill="#c5e1a5"
     stroke="#7cb342"
     stroke-width="1"
     transform="rotate(0 370 280)"
     id="path21">
    <animateTransform
       attributeName="transform"
       type="rotate"
       from="0 370 280"
       to="360 370 280"
       dur="4s"
       repeatCount="indefinite" />
  </path>
  <!-- Solar Farm -->
  <rect
     x="440"
     cy="350"
     width="20"
     height="20"
     fill="#c5e1a5"
     stroke="#7cb342"
     stroke-width="1"
     id="rect21" />
  <line
     x1="440"
     y1="350"
     x2="460"
     y2="350"
     stroke="#7cb342"
     stroke-width="1"
     id="line21" />
  <line
     x1="440"
     y1="355"
     x2="460"
     y2="355"
     stroke="#7cb342"
     stroke-width="1"
     id="line22" />
  <line
     x1="440"
     y1="360"
     x2="460"
     y2="360"
     stroke="#7cb342"
     stroke-width="1"
     id="line23" />
  <line
     x1="440"
     y1="365"
     x2="460"
     y2="365"
     stroke="#7cb342"
     stroke-width="1"
     id="line24" />
  <!-- Green City -->
  <rect
     x="320"
     y="380"
     width="30"
     height="20"
     fill="#c5e1a5"
     stroke="#7cb342"
     stroke-width="1"
     id="rect24" />
  <path
     d="M310,380 L360,380 L335,360 Z"
     fill="#aed581"
     stroke="#7cb342"
     stroke-width="1"
     id="path24" />
  <!-- Trees around city -->
  <circle
     cx="310"
     cy="380"
     r="5"
     fill="#33691e"
     id="circle24" />
  <rect
     x="308"
     y="385"
     width="4"
     height="6"
     fill="#4e342e"
     id="rect25" />
  <circle
     cx="360"
     cy="380"
     r="5"
     fill="#33691e"
     id="circle25" />
  <rect
     x="358"
     y="385"
     width="4"
     height="6"
     fill="#4e342e"
     id="rect26" />
  <!-- Sustainable Farming -->
  <rect
     x="510"
     y="340"
     width="20"
     height="10"
     fill="#a5d6a7"
     stroke="#43a047"
     stroke-width="1"
     id="rect27" />
  <line
     x1="510"
     y1="340"
     x2="510"
     y2="350"
     stroke="#43a047"
     stroke-width="1"
     id="line27" />
  <line
     x1="515"
     y1="340"
     x2="515"
     y2="350"
     stroke="#43a047"
     stroke-width="1"
     id="line28" />
  <line
     x1="520"
     y1="340"
     x2="520"
     y2="350"
     stroke="#43a047"
     stroke-width="1"
     id="line29" />
  <line
     x1="525"
     y1="340"
     x2="525"
     y2="350"
     stroke="#43a047"
     stroke-width="1"
     id="line30" />
  <line
     x1="530"
     y1="340"
     x2="530"
     y2="350"
     stroke="#43a047"
     stroke-width="1"
     id="line31" />
  <!-- Clouds -->
  <path
     d="M150,240 C170,230 190,250 180,270 C200,280 180,310 160,300 C150,320 120,310 130,290 C110,280 130,250 150,240"
     fill="white"
     opacity="0.7"
     id="path31">
    <animate
       attributeName="x"
       from="0"
       to="50"
       dur="15s"
       repeatCount="indefinite" />
  </path>
  <path
     d="M550,240 C570,230 590,250 580,270 C600,280 580,310 560,300 C550,320 520,310 530,290 C510,280 530,250 550,240"
     fill="white"
     opacity="0.7"
     id="path32">
    <animate
       attributeName="x"
       from="0"
       to="-50"
       dur="18s"
       repeatCount="indefinite" />
  </path>
  <!-- Butterfly -->
  <g
     transform="translate(400, 200)"
     id="g39">
    <animateTransform
       attributeName="transform"
       type="translate"
       values="400,200; 380,180; 420,160; 440,180; 400,200"
       dur="6s"
       repeatCount="indefinite" />
    <!-- Body -->
    <line
       x1="0"
       y1="0"
       x2="0"
       y2="15"
       stroke="#6a1b9a"
       stroke-width="4"
       stroke-linecap="round"
       id="line32" />
    <circle
       cx="0"
       cy="0"
       r="4"
       fill="#9c27b0"
       id="circle32" />
    <circle
       cx="0"
       cy="15"
       r="4"
       fill="#9c27b0"
       id="circle33" />
    <!-- First Wing Pair - Upper -->
    <path
       d="M0,0 Q-30,-30 -10,-50 Q10,-60 15,-40 Q20,-20 0,0"
       fill="#ce93d8"
       stroke="#8e24aa"
       stroke-width="1.5"
       id="path33">
      <animate
         attributeName="d"
         values="M0,0 Q-30,-30 -10,-50 Q10,-60 15,-40 Q20,-20 0,0;                 M0,0 Q-25,-25 -8,-45 Q8,-55 12,-35 Q15,-15 0,0;                 M0,0 Q-30,-30 -10,-50 Q10,-60 15,-40 Q20,-20 0,0"
         dur="1s"
         repeatCount="indefinite" />
    </path>
    <!-- First Wing Pair - Lower -->
    <path
       d="M0,0 Q30,-30 10,-50 Q-10,-60 -15,-40 Q-20,-20 0,0"
       fill="#ce93d8"
       stroke="#8e24aa"
       stroke-width="1.5"
       id="path34">
      <animate
         attributeName="d"
         values="M0,0 Q30,-30 10,-50 Q-10,-60 -15,-40 Q-20,-20 0,0;                 M0,0 Q25,-25 8,-45 Q-8,-55 -12,-35 Q-15,-15 0,0;                 M0,0 Q30,-30 10,-50 Q-10,-60 -15,-40 Q-20,-20 0,0"
         dur="1s"
         repeatCount="indefinite" />
    </path>
    <!-- Second Wing Pair - Upper -->
    <path
       d="M0,15 Q-30,45 -10,65 Q10,75 15,55 Q20,35 0,15"
       fill="#ce93d8"
       stroke="#8e24aa"
       stroke-width="1.5"
       id="path35">
      <animate
         attributeName="d"
         values="M0,15 Q-30,45 -10,65 Q10,75 15,55 Q20,35 0,15;                 M0,15 Q-25,40 -8,60 Q8,70 12,50 Q15,30 0,15;                 M0,15 Q-30,45 -10,65 Q10,75 15,55 Q20,35 0,15"
         dur="1s"
         repeatCount="indefinite" />
    </path>
    <!-- Second Wing Pair - Lower -->
    <path
       d="M0,15 Q30,45 10,65 Q-10,75 -15,55 Q-20,35 0,15"
       fill="#ce93d8"
       stroke="#8e24aa"
       stroke-width="1.5"
       id="path36">
      <animate
         attributeName="d"
         values="M0,15 Q30,45 10,65 Q-10,75 -15,55 Q-20,35 0,15;                 M0,15 Q25,40 8,60 Q-8,70 -12,50 Q-15,30 0,15;                 M0,15 Q30,45 10,65 Q-10,75 -15,55 Q-20,35 0,15"
         dur="1s"
         repeatCount="indefinite" />
    </path>
    <!-- Wing patterns -->
    <circle
       cx="-15"
       cy="-30"
       r="3"
       fill="#7b1fa2"
       id="circle36" />
    <circle
       cx="15"
       cy="-30"
       r="3"
       fill="#7b1fa2"
       id="circle37" />
    <circle
       cx="-15"
       cy="45"
       r="3"
       fill="#7b1fa2"
       id="circle38" />
    <circle
       cx="15"
       cy="45"
       r="3"
       fill="#7b1fa2"
       id="circle39" />
  </g>
  <!-- People around Earth -->
  <!-- Person 1 -->
  <circle
     cx="258"
     cy="450"
     r="10"
     fill="#ffb74d"
     id="circle40" />
  <circle
     cx="258"
     cy="440"
     r="6"
     fill="#e65100"
     id="circle41" />
  <line
     x1="258"
     y1="460"
     x2="253"
     y2="475"
     stroke="#e65100"
     stroke-width="2"
     id="line41" />
  <line
     x1="258"
     y1="460"
     x2="263"
     y2="475"
     stroke="#e65100"
     stroke-width="2"
     id="line42" />
  <line
     x1="258"
     y1="455"
     x2="248"
     y2="465"
     stroke="#e65100"
     stroke-width="2"
     id="line43" />
  <line
     x1="258"
     y1="455"
     x2="268"
     y2="465"
     stroke="#e65100"
     stroke-width="2"
     id="line44" />
  <!-- Person 2 -->
  <circle
     cx="550"
     cy="450"
     r="10"
     fill="#81d4fa"
     id="circle44" />
  <circle
     cx="550"
     cy="440"
     r="6"
     fill="#0277bd"
     id="circle45" />
  <line
     x1="550"
     y1="460"
     x2="545"
     y2="475"
     stroke="#0277bd"
     stroke-width="2"
     id="line45" />
  <line
     x1="550"
     y1="460"
     x2="555"
     y2="475"
     stroke="#0277bd"
     stroke-width="2"
     id="line46" />
  <line
     x1="550"
     y1="455"
     x2="540"
     y2="465"
     stroke="#0277bd"
     stroke-width="2"
     id="line47" />
  <line
     x1="550"
     y1="455"
     x2="560"
     y2="465"
     stroke="#0277bd"
     stroke-width="2"
     id="line48" />
  <!-- Person 3 -->
  <circle
     cx="400"
     cy="530"
     r="10"
     fill="#f8bbd0"
     id="circle48" />
  <circle
     cx="400"
     cy="520"
     r="6"
     fill="#ad1457"
     id="circle49" />
  <line
     x1="400"
     y1="540"
     x2="395"
     y2="555"
     stroke="#ad1457"
     stroke-width="2"
     id="line49" />
  <line
     x1="400"
     y1="540"
     x2="405"
     y2="555"
     stroke="#ad1457"
     stroke-width="2"
     id="line50" />
  <line
     x1="400"
     y1="535"
     x2="390"
     y2="545"
     stroke="#ad1457"
     stroke-width="2"
     id="line51" />
  <line
     x1="400"
     y1="535"
     x2="410"
     y2="545"
     stroke="#ad1457"
     stroke-width="2"
     id="line52" />
  <!-- Quote -->
  <rect
     x="100"
     y="500"
     width="600"
     height="80"
     rx="15"
     ry="15"
     fill="white"
     opacity="0.8"
     id="rect52" />
  <text
     x="400"
     y="540"
     font-family="Arial, sans-serif"
     font-size="24"
     text-anchor="middle"
     fill="#1a237e"
     font-style="italic"
     font-weight="bold"
     id="text52">&quot;We are ancestors of the world to come.&quot;</text>
  <text
     x="400"
     y="570"
     font-family="Arial, sans-serif"
     font-size="16"
     text-anchor="middle"
     fill="#512da8"
     id="text53">Let's co-create the future — together</text>
  <!-- Technology boxes -->
  <!-- Clean Energy -->
  <rect
     x="100"
     y="300"
     width="80"
     height="50"
     rx="10"
     ry="10"
     fill="#c8e6c9"
     stroke="#388e3c"
     stroke-width="2"
     id="rect53" />
  <text
     x="140"
     y="325"
     font-family="Arial, sans-serif"
     font-size="10"
     text-anchor="middle"
     fill="#2e7d32"
     id="text54">Clean Energy</text>
  <text
     x="140"
     y="340"
     font-family="Arial, sans-serif"
     font-size="14"
     text-anchor="middle"
     fill="#2e7d32"
     id="text55">☀️</text>
  <!-- Sustainable Food -->
  <rect
     x="620"
     y="300"
     width="80"
     height="50"
     rx="10"
     ry="10"
     fill="#c8e6c9"
     stroke="#388e3c"
     stroke-width="2"
     id="rect55" />
  <text
     x="660"
     y="325"
     font-family="Arial, sans-serif"
     font-size="10"
     text-anchor="middle"
     fill="#2e7d32"
     id="text56">Local Food</text>
  <text
     x="660"
     y="340"
     font-family="Arial, sans-serif"
     font-size="14"
     text-anchor="middle"
     fill="#2e7d32"
     id="text57">🥗</text>
  <!-- Indigenous Wisdom -->
  <rect
     x="152.98218"
     y="400.07437"
     width="92.617218"
     height="49.851261"
     rx="11.577152"
     ry="9.970252"
     fill="#c8e6c9"
     stroke="#388e3c"
     stroke-width="2.14874"
     id="rect57" />
  <text
     x="200"
     y="425"
     font-family="Arial, sans-serif"
     font-size="10"
     text-anchor="middle"
     fill="#2e7d32"
     id="text58">Indigenous Wisdom</text>
  <text
     x="200"
     y="440"
     font-family="Arial, sans-serif"
     font-size="14"
     text-anchor="middle"
     fill="#2e7d32"
     id="text59">🧠</text>
  <!-- Green Tech -->
  <rect
     x="560"
     y="400"
     width="80"
     height="50"
     rx="10"
     ry="10"
     fill="#c8e6c9"
     stroke="#388e3c"
     stroke-width="2"
     id="rect59" />
  <text
     x="600"
     y="425"
     font-family="Arial, sans-serif"
     font-size="10"
     text-anchor="middle"
     fill="#2e7d32"
     id="text60">Green Tech</text>
  <text
     x="600"
     y="440"
     font-family="Arial, sans-serif"
     font-size="14"
     text-anchor="middle"
     fill="#2e7d32"
     id="text61">🛠️</text>
</svg>
