<?xml version="1.0" encoding="UTF-8" standalone="no"?>
<svg
   width="1080"
   height="1080"
   viewBox="0 0 1080 1080"
   version="1.1"
   id="svg23"
   sodipodi:docname="improved-diverse-voices-graphic.svg"
   inkscape:version="1.4.2 (ebf0e940d0, 2025-05-08)"
   inkscape:export-filename="improved-diverse-voices-graphic.png"
   inkscape:export-xdpi="96"
   inkscape:export-ydpi="96"
   xmlns:inkscape="http://www.inkscape.org/namespaces/inkscape"
   xmlns:sodipodi="http://sodipodi.sourceforge.net/DTD/sodipodi-0.dtd"
   xmlns="http://www.w3.org/2000/svg"
   xmlns:svg="http://www.w3.org/2000/svg">
  <defs
     id="defs23" />
  <sodipodi:namedview
     id="namedview23"
     pagecolor="#ffffff"
     bordercolor="#000000"
     borderopacity="0.25"
     inkscape:showpageshadow="2"
     inkscape:pageopacity="0.0"
     inkscape:pagecheckerboard="0"
     inkscape:deskcolor="#d1d1d1"
     inkscape:zoom="0.78333333"
     inkscape:cx="475.53191"
     inkscape:cy="603.82979"
     inkscape:window-width="2520"
     inkscape:window-height="1048"
     inkscape:window-x="0"
     inkscape:window-y="0"
     inkscape:window-maximized="1"
     inkscape:current-layer="svg23" />
  <!-- Background -->
  <rect
     width="1080"
     height="1080"
     fill="#fffaf0"
     id="rect1" />
  <!-- Title -->
  <text
     x="540"
     y="100"
     font-family="Arial, sans-serif"
     font-size="48"
     font-weight="bold"
     text-anchor="middle"
     fill="#744210"
     id="text1">Diverse Voices at the Table</text>
  <!-- Circle representing the dialogue table -->
  <circle
     cx="540"
     cy="540"
     r="320"
     fill="#f6e05e"
     fill-opacity="0.3"
     stroke="#744210"
     stroke-width="4"
     id="circle1" />
  <text
     x="519.91779"
     y="806.43158"
     font-family="Arial, sans-serif"
     font-size="48px"
     font-weight="bold"
     text-anchor="middle"
     fill="#744210"
     id="text5-3">ॐ</text>
  <!-- Christianity - Cross -->
  <g
     transform="translate(554,316)"
     id="g2">
    <path
       d="M 0,-40 V 40 M -30,0 h 60"
       stroke="#744210"
       stroke-width="8"
       fill="none"
       stroke-linecap="round"
       id="path1" />
    <text
       x="0"
       y="-60"
       font-family="Arial, sans-serif"
       font-size="20px"
       font-weight="bold"
       text-anchor="middle"
       fill="#744210"
       id="text2">Christianity</text>
  </g>
  <!-- Islam - Crescent and Star -->
  <polygon
     points="22,-25 25,-35 28,-25 38,-25 30,-19 33,-9 25,-15 17,-9 20,-19 12,-25 "
     fill="#744210"
     id="polygon2"
     transform="translate(744,460)" />
  <text
     x="770"
     y="393"
     font-family="Arial, sans-serif"
     font-size="20px"
     font-weight="bold"
     text-anchor="middle"
     fill="#744210"
     id="text3">Islam</text>
  <!-- Judaism - Star of David -->
  <path
     d="m 360,346.92372 23.31399,47.12506 H 336.686 Z m 0,62.83342 -23.314,-47.12506 h 46.62799 z"
     fill="none"
     stroke="#744210"
     stroke-width="4.75188"
     id="path3" />
  <text
     x="360"
     y="331"
     font-family="Arial, sans-serif"
     font-size="20px"
     font-weight="bold"
     text-anchor="middle"
     fill="#744210"
     id="text4">Judaism</text>
  <!-- Hinduism - Om Symbol -->
  <text
     x="518"
     y="838"
     font-family="Arial, sans-serif"
     font-size="20px"
     font-weight="bold"
     text-anchor="middle"
     fill="#744210"
     id="text5">Hinduism</text>
  <!-- Buddhism - Dharma Wheel -->
  <g
     transform="translate(650,740)"
     id="g6">
    <circle
       cx="0"
       cy="0"
       r="30"
       fill="none"
       stroke="#744210"
       stroke-width="3"
       id="circle5" />
    <circle
       cx="0"
       cy="0"
       r="10"
       fill="none"
       stroke="#744210"
       stroke-width="2"
       id="circle6" />
    <path
       d="m 0,-30 v 20 M 0,10 V 30 M -30,0 h 20 M 10,0 H 30 M -21.2,-21.2 -7.1,-7.1 M 7.1,7.1 21.2,21.2 m -42.4,0 L -7.1,7.1 M 7.1,-7.1 21.2,-21.2"
       stroke="#744210"
       stroke-width="3"
       id="path6" />
    <text
       x="0"
       y="60"
       font-family="Arial, sans-serif"
       font-size="20px"
       font-weight="bold"
       text-anchor="middle"
       fill="#744210"
       id="text6">Buddhism</text>
  </g>
  <!-- Indigenous - Sacred Spiral -->
  <g
     transform="translate(390,696)"
     id="g8">
    <path
       d="M 0,0 A 7.0710678,7.0710678 0 0 1 10,10 14.142136,14.142136 0 0 1 -10,-10 21.213203,21.213203 0 0 1 20,20 28.284271,28.284271 0 0 1 -20,-20"
       stroke="#744210"
       stroke-width="3"
       fill="none"
       transform="scale(1.2)"
       id="path7" />
    <text
       x="0"
       y="60"
       font-family="Arial, sans-serif"
       font-size="20px"
       font-weight="bold"
       text-anchor="middle"
       fill="#744210"
       id="text7">Indigenous</text>
    <text
       x="0"
       y="85"
       font-family="Arial, sans-serif"
       font-size="20px"
       font-weight="bold"
       text-anchor="middle"
       fill="#744210"
       id="text8">Traditions</text>
  </g>
  <!-- Sikhism - Khanda -->
  <g
     transform="translate(752,658)"
     id="g10">
    <path
       d="M 0,-35 V 35"
       stroke="#744210"
       stroke-width="3"
       id="path8" />
    <path
       d="M -30,0 H 30"
       stroke="#744210"
       stroke-width="3"
       id="path9" />
    <circle
       cx="0"
       cy="0"
       r="20"
       fill="none"
       stroke="#744210"
       stroke-width="2"
       id="circle9" />
    <path
       d="m -10,-25 c -5,5 -5,45 0,50 m 20,-50 c 5,5 5,45 0,50"
       stroke="#744210"
       stroke-width="2"
       fill="none"
       id="path10" />
    <text
       x="0"
       y="60"
       font-family="Arial, sans-serif"
       font-size="20px"
       font-weight="bold"
       text-anchor="middle"
       fill="#744210"
       id="text10">Sikhism</text>
  </g>
  <!-- Baha'i - Nine Pointed Star -->
  <g
     transform="translate(298,502)"
     id="g11">
    <path
       d="M 0,-30 6.9,-11.8 26.8,-9.2 11.7,4.5 16.4,23.9 0,13.5 -16.4,23.9 -11.7,4.5 -26.8,-9.2 -6.9,-11.8 Z"
       fill="none"
       stroke="#744210"
       stroke-width="2"
       id="path11" />
    <text
       x="0"
       y="-45"
       font-family="Arial, sans-serif"
       font-size="20px"
       font-weight="bold"
       text-anchor="middle"
       fill="#744210"
       id="text11">Bahá'í Faith</text>
  </g>
  <!-- Jainism - Symbol -->
  <g
     transform="translate(798,570)"
     id="g14">
    <path
       d="M 0,30 C -10,30 -20,25 -20,15 -20,5 -10,0 0,0 10,0 20,5 20,15 20,25 10,30 0,30 Z"
       fill="none"
       stroke="#744210"
       stroke-width="2"
       id="path12" />
    <path
       d="m 0,-5 c 10,0 15,-10 10,-20 -5,-5 -15,-5 -20,0 -5,10 0,20 10,20 z"
       fill="none"
       stroke="#744210"
       stroke-width="2"
       id="path13" />
    <line
       x1="0"
       y1="0"
       x2="0"
       y2="-5"
       stroke="#744210"
       stroke-width="2"
       id="line13" />
    <path
       d="M -10,-10 H 10"
       stroke="#744210"
       stroke-width="2"
       id="path14" />
    <text
       x="0"
       y="-45"
       font-family="Arial, sans-serif"
       font-size="20px"
       font-weight="bold"
       text-anchor="middle"
       fill="#744210"
       id="text14">Jainism</text>
  </g>
  <!-- Secular Humanism - Human Figure -->
  <circle
     cx="284"
     cy="619"
     r="10"
     fill="#744210"
     id="circle14" />
  <path
     d="m 284,629 v 20 m -15,-15 h 30 m -25,30 10,-15 10,15"
     stroke="#744210"
     stroke-width="3"
     fill="none"
     id="path15" />
  <text
     x="284"
     y="572"
     font-family="Arial, sans-serif"
     font-size="20px"
     font-weight="bold"
     text-anchor="middle"
     fill="#744210"
     id="text15">Secular</text>
  <text
     x="284"
     y="597"
     font-family="Arial, sans-serif"
     font-size="20px"
     font-weight="bold"
     text-anchor="middle"
     fill="#744210"
     id="text16">Humanism</text>
  <!-- Taoism - Yin Yang -->
  <g
     transform="translate(446,318)"
     id="g17">
    <path
       d="M 0,-25 A 25,25 0 1 1 0,25 12.5,12.5 0 1 1 0,0 12.5,12.5 0 1 0 0,-25"
       fill="#744210"
       id="path16" />
    <circle
       cx="0"
       cy="-12.5"
       r="3"
       fill="#fffaf0"
       id="circle16" />
    <circle
       cx="0"
       cy="12.5"
       r="3"
       fill="#744210"
       id="circle17" />
    <text
       x="0"
       y="-45"
       font-family="Arial, sans-serif"
       font-size="20px"
       font-weight="bold"
       text-anchor="middle"
       fill="#744210"
       id="text17">Taoism</text>
  </g>
  <!-- Zoroastrianism - Faravahar -->
  <g
     transform="translate(670,358)"
     id="g19">
    <circle
       cx="0"
       cy="0"
       r="15"
       fill="#744210"
       id="circle18" />
    <path
       d="M -25,0 H 25 M 0,-25 v 50"
       stroke="#744210"
       stroke-width="2"
       id="path18" />
    <path
       d="m -20,-20 40,40 m -40,0 40,-40"
       stroke="#744210"
       stroke-width="2"
       id="path19" />
    <text
       x="0"
       y="-45"
       font-family="Arial, sans-serif"
       font-size="18px"
       font-weight="bold"
       text-anchor="middle"
       fill="#744210"
       id="text19">Zoroastrianism</text>
  </g>
  <!-- Table text -->
  <text
     x="540"
     y="530"
     font-family="Arial, sans-serif"
     font-size="36"
     font-weight="bold"
     text-anchor="middle"
     fill="#744210"
     id="text20">Dialogue</text>
  <text
     x="540"
     y="580"
     font-family="Arial, sans-serif"
     font-size="36"
     font-weight="bold"
     text-anchor="middle"
     fill="#744210"
     id="text21">Table</text>
  <!-- Respect line -->
  <text
     x="540"
     y="940"
     font-family="Arial, sans-serif"
     font-size="24"
     text-anchor="middle"
     font-style="italic"
     fill="#744210"
     id="text22">Honoring diverse traditions while building bridges</text>
  <!-- Footer -->
  <rect
     x="0"
     y="980"
     width="1080"
     height="100"
     fill="#744210"
     id="rect22" />
  <text
     x="540"
     y="1040"
     font-family="Arial, sans-serif"
     font-size="32"
     font-weight="bold"
     text-anchor="middle"
     fill="#ffffff"
     id="text23">Religious  Spiritual Dialogue Framework</text>
  <path
     d="m 782.22553,400.72839 q 30,40 0,80 50,-30 0,-80"
     fill="none"
     stroke="#744210"
     stroke-width="8"
     id="path2"
     style="stroke-width:2;stroke-dasharray:none" />
</svg>
