<?xml version="1.0" encoding="UTF-8" standalone="no"?>
<svg
   viewBox="0 0 800 400"
   version="1.1"
   id="svg49"
   sodipodi:docname="dialogue-action-flow.svg"
   inkscape:version="1.4 (e7c3feb100, 2024-10-09)"
   xmlns:inkscape="http://www.inkscape.org/namespaces/inkscape"
   xmlns:sodipodi="http://sodipodi.sourceforge.net/DTD/sodipodi-0.dtd"
   xmlns="http://www.w3.org/2000/svg"
   xmlns:svg="http://www.w3.org/2000/svg">
  <defs
     id="defs49" />
  <sodipodi:namedview
     id="namedview49"
     pagecolor="#ffffff"
     bordercolor="#000000"
     borderopacity="0.25"
     inkscape:showpageshadow="2"
     inkscape:pageopacity="0.0"
     inkscape:pagecheckerboard="0"
     inkscape:deskcolor="#d1d1d1"
     inkscape:zoom="1.4955308"
     inkscape:cx="391.49978"
     inkscape:cy="157.8035"
     inkscape:window-width="2520"
     inkscape:window-height="1048"
     inkscape:window-x="0"
     inkscape:window-y="0"
     inkscape:window-maximized="1"
     inkscape:current-layer="svg49" />
  <!-- Background with subtle texture -->
  <rect
     width="800"
     height="400"
     fill="#f9f8f4"
     rx="15"
     ry="15"
     id="rect1" />
  <pattern
     id="dots"
     width="20"
     height="20"
     patternUnits="userSpaceOnUse">
    <circle
       cx="10"
       cy="10"
       r="1"
       fill="#5a9378"
       opacity="0.2"
       id="circle1" />
  </pattern>
  <rect
     width="800"
     height="400"
     fill="url(#dots)"
     rx="15"
     ry="15"
     id="rect2" />
  <!-- Decorative Flowing Path in Background -->
  <path
     d="M50,200 C150,140 250,260 400,200 S650,100 750,180"
     stroke="#3a866c"
     stroke-width="8"
     stroke-opacity="0.1"
     fill="none"
     stroke-linecap="round"
     id="path2" />
  <!-- Main Flow Elements -->
  <!-- Summit Node -->
  <g
     class="flow-node"
     transform="translate(100, 200)"
     id="g9">
    <circle
       cx="0"
       cy="0"
       r="60"
       fill="#ffffff"
       stroke="#3a866c"
       stroke-width="2.5"
       id="circle2" />
    <circle
       cx="0"
       cy="0"
       r="50"
       fill="#f0f7f4"
       id="circle3" />
    <!-- Summit Icon: Stylized gathering of people -->
    <g
       transform="translate(-25, -15) scale(0.9)"
       id="g8">
      <circle
         cx="0"
         cy="0"
         r="12"
         fill="#3a866c"
         opacity="0.8"
         id="circle4" />
      <circle
         cx="20"
         cy="-15"
         r="12"
         fill="#3a866c"
         opacity="0.8"
         id="circle5" />
      <circle
         cx="40"
         cy="5"
         r="12"
         fill="#3a866c"
         opacity="0.8"
         id="circle6" />
      <circle
         cx="15"
         cy="25"
         r="12"
         fill="#3a866c"
         opacity="0.8"
         id="circle7" />
      <circle
         cx="45"
         cy="25"
         r="12"
         fill="#3a866c"
         opacity="0.8"
         id="circle8" />
    </g>
    <text
       y="35"
       text-anchor="middle"
       font-family="Arial, sans-serif"
       font-size="16"
       font-weight="bold"
       fill="#3a866c"
       id="text8">Summit</text>
  </g>
  <!-- Lab Node -->
  <g
     class="flow-node"
     transform="translate(300, 200)"
     id="g13">
    <circle
       cx="0"
       cy="0"
       r="60"
       fill="#ffffff"
       stroke="#3a866c"
       stroke-width="2.5"
       id="circle9" />
    <circle
       cx="0"
       cy="0"
       r="50"
       fill="#f0f7f4"
       id="circle10" />
    <!-- Lab Icon: Stylized flask and document -->
    <g
       transform="translate(-20, -15)"
       id="g12">
      <path
         d="M0,0 L30,0 L30,10 L40,10 L40,40 L-10,40 L-10,10 L0,10 Z"
         fill="#3a866c"
         opacity="0.8"
         id="path10" />
      <path
         d="M5,5 L25,5 M5,15 L35,15 M5,25 L35,25 M5,35 L35,35"
         stroke="#ffffff"
         stroke-width="2"
         id="path11" />
      <path
         d="M15,-10 L15,0 M25,-10 L25,0"
         stroke="#3a866c"
         stroke-width="3"
         id="path12" />
    </g>
    <text
       y="35"
       text-anchor="middle"
       font-family="Arial, sans-serif"
       font-size="16"
       font-weight="bold"
       fill="#3a866c"
       id="text12">Lab</text>
  </g>
  <!-- Policy Node -->
  <g
     class="flow-node"
     transform="translate(500, 200)"
     id="g17">
    <circle
       cx="0"
       cy="0"
       r="60"
       fill="#ffffff"
       stroke="#3a866c"
       stroke-width="2.5"
       id="circle13" />
    <circle
       cx="0"
       cy="0"
       r="50"
       fill="#f0f7f4"
       id="circle14" />
    <!-- Policy Icon: Stylized document and scale -->
    <g
       transform="translate(-25, -25)"
       id="g16">
      <rect
         x="0"
         y="0"
         width="35"
         height="45"
         fill="#3a866c"
         opacity="0.8"
         rx="3"
         ry="3"
         id="rect14" />
      <path
         d="M5,10 L30,10 M5,20 L30,20 M5,30 L20,30"
         stroke="#ffffff"
         stroke-width="2"
         id="path14" />
      <path
         d="M45,25 L45,15 L50,10 L55,15 L55,25 Z"
         fill="#3a866c"
         opacity="0.8"
         id="path15" />
      <path
         d="M40,25 L60,25"
         stroke="#3a866c"
         stroke-width="3"
         stroke-linecap="round"
         id="path16" />
    </g>
    <text
       y="35"
       text-anchor="middle"
       font-family="Arial, sans-serif"
       font-size="16"
       font-weight="bold"
       fill="#3a866c"
       id="text16">Policy</text>
  </g>
  <!-- Community Impact Node -->
  <g
     class="flow-node"
     transform="translate(700, 200)"
     id="g22">
    <circle
       cx="0"
       cy="0"
       r="60"
       fill="#ffffff"
       stroke="#3a866c"
       stroke-width="2.5"
       id="circle17" />
    <circle
       cx="0"
       cy="0"
       r="50"
       fill="#f0f7f4"
       id="circle18" />
    <!-- Community Impact Icon: Stylized community and heart -->
    <g
       transform="translate(-25, -25)"
       id="g21">
      <path
         d="M25,0 L40,15 L50,5 L50,25 L40,35 L25,50 L10,35 L0,25 L0,5 L10,15 Z"
         fill="#3a866c"
         opacity="0.8"
         id="path18" />
      <circle
         cx="25"
         cy="20"
         r="7"
         fill="#ffffff"
         id="circle19" />
      <circle
         cx="15"
         cy="32"
         r="5"
         fill="#ffffff"
         id="circle20" />
      <circle
         cx="35"
         cy="32"
         r="5"
         fill="#ffffff"
         id="circle21" />
    </g>
    <text
       y="35"
       text-anchor="middle"
       font-family="Arial, sans-serif"
       font-size="15"
       font-weight="bold"
       fill="#3a866c"
       id="text21">Community</text>
    <text
       y="55"
       text-anchor="middle"
       font-family="Arial, sans-serif"
       font-size="15"
       font-weight="bold"
       fill="#3a866c"
       id="text22">Impact</text>
  </g>
  <!-- Flow Arrows -->
  <g
     id="g24">
    <!-- Summit to Lab Arrow -->
    <path
       d="M160,200 L240,200"
       stroke="#5a9378"
       stroke-width="4"
       fill="none"
       id="path22" />
    <polygon
       points="245,200 235,195 235,205"
       fill="#5a9378"
       id="polygon22" />
    <!-- Lab to Policy Arrow -->
    <path
       d="M360,200 L440,200"
       stroke="#5a9378"
       stroke-width="4"
       fill="none"
       id="path23" />
    <polygon
       points="445,200 435,195 435,205"
       fill="#5a9378"
       id="polygon23" />
    <!-- Policy to Community Impact Arrow -->
    <path
       d="M560,200 L640,200"
       stroke="#5a9378"
       stroke-width="4"
       fill="none"
       id="path24" />
    <polygon
       points="645,200 635,195 635,205"
       fill="#5a9378"
       id="polygon24" />
  </g>
  <!-- Title -->
  <g
     transform="translate(400, 40)"
     id="g25">
    <rect
       x="-170"
       y="-30"
       width="340"
       height="40"
       rx="10"
       ry="10"
       fill="#3a866c"
       opacity="0.9"
       id="rect24" />
    <text
       x="0"
       y="5"
       text-anchor="middle"
       font-family="Arial, sans-serif"
       font-size="18"
       font-weight="bold"
       fill="#ffffff"
       id="text24">Dialogue into Action Flow</text>
  </g>
  <!-- Step Descriptions -->
  <g
     class="description"
     transform="translate(100, 310)"
     id="g27">
    <rect
       x="-80"
       y="-15"
       width="160"
       height="70"
       rx="8"
       ry="8"
       fill="#ffffff"
       stroke="#5a9378"
       stroke-width="1.5"
       id="rect25" />
    <text
       text-anchor="middle"
       font-family="Arial, sans-serif"
       fill="#333333"
       id="text27"><tspan
         x="0"
         y="0"
         font-size="12"
         font-weight="bold"
         id="tspan25">Global  Regional</tspan><tspan
         x="0"
         y="20"
         font-size="12"
         font-weight="bold"
         id="tspan26">Summits</tspan><tspan
         x="0"
         y="40"
         font-size="11"
         id="tspan27">Diverse traditions gather</tspan></text>
  </g>
  <rect
     x="220.05446"
     y="295.05447"
     width="159.89108"
     height="80.589622"
     rx="7.994554"
     ry="9.2102432"
     fill="#ffffff"
     stroke="#5a9378"
     stroke-width="1.60892"
     id="rect27" />
  <text
     text-anchor="middle"
     font-family="Arial, sans-serif"
     fill="#333333"
     id="text31"
     x="300"
     y="310"><tspan
       x="300"
       y="310"
       font-size="12px"
       font-weight="bold"
       id="tspan28">Policy Translation</tspan><tspan
       x="300"
       y="330"
       font-size="12px"
       font-weight="bold"
       id="tspan29">Labs</tspan><tspan
       x="300"
       y="350"
       font-size="11px"
       id="tspan30">Spiritual wisdom meets</tspan><tspan
       x="300"
       y="365"
       font-size="11px"
       id="tspan31">practical governance</tspan></text>
  <rect
     x="420.04785"
     y="295.04785"
     width="159.90428"
     height="79.265511"
     rx="7.9952145"
     ry="9.0589161"
     fill="#ffffff"
     stroke="#5a9378"
     stroke-width="1.59571"
     id="rect31" />
  <text
     text-anchor="middle"
     font-family="Arial, sans-serif"
     fill="#333333"
     id="text35"
     x="500"
     y="310"><tspan
       x="500"
       y="310"
       font-size="12px"
       font-weight="bold"
       id="tspan32">Policy</tspan><tspan
       x="500"
       y="330"
       font-size="12px"
       font-weight="bold"
       id="tspan33">Integration</tspan><tspan
       x="500"
       y="350"
       font-size="11px"
       id="tspan34">Ethical frameworks</tspan><tspan
       x="500"
       y="365"
       font-size="11px"
       id="tspan35">inform governance</tspan></text>
  <rect
     x="620.04456"
     y="295.04453"
     width="159.91093"
     height="78.6035"
     rx="7.9955468"
     ry="8.9832573"
     fill="#ffffff"
     stroke="#5a9378"
     stroke-width="1.58907"
     id="rect35" />
  <text
     text-anchor="middle"
     font-family="Arial, sans-serif"
     fill="#333333"
     id="text39"
     x="700"
     y="310"><tspan
       x="700"
       y="310"
       font-size="12px"
       font-weight="bold"
       id="tspan36">Community</tspan><tspan
       x="700"
       y="330"
       font-size="12px"
       font-weight="bold"
       id="tspan37">Impact</tspan><tspan
       x="700"
       y="350"
       font-size="11px"
       id="tspan38">Values-aligned policies</tspan><tspan
       x="700"
       y="365"
       font-size="11px"
       id="tspan39">benefit communities</tspan></text>
  <!-- Decorative Elements -->
  <g
     id="g45">
    <!-- Small decorative dots along the flow -->
    <circle
       cx="150"
       cy="170"
       r="5"
       fill="#5a9378"
       opacity="0.3"
       id="circle39" />
    <circle
       cx="160"
       cy="230"
       r="3"
       fill="#5a9378"
       opacity="0.3"
       id="circle40" />
    <circle
       cx="350"
       cy="170"
       r="5"
       fill="#5a9378"
       opacity="0.3"
       id="circle41" />
    <circle
       cx="360"
       cy="230"
       r="3"
       fill="#5a9378"
       opacity="0.3"
       id="circle42" />
    <circle
       cx="550"
       cy="170"
       r="5"
       fill="#5a9378"
       opacity="0.3"
       id="circle43" />
    <circle
       cx="560"
       cy="230"
       r="3"
       fill="#5a9378"
       opacity="0.3"
       id="circle44" />
    <!-- Curved decorative lines at bottom -->
    <path
       d="M50,370 C200,390 400,350 750,380"
       stroke="#3a866c"
       stroke-width="2"
       stroke-opacity="0.2"
       fill="none"
       id="path44" />
    <path
       d="M50,380 C250,410 500,370 750,390"
       stroke="#3a866c"
       stroke-width="2"
       stroke-opacity="0.2"
       fill="none"
       id="path45" />
  </g>
  <!-- Small feedback loops (indicating iterative process) -->
  <path
     d="M120,150 C140,130 170,130 190,150"
     stroke="#5a9378"
     stroke-width="1.5"
     fill="none"
     stroke-dasharray="3,2"
     id="path46" />
  <polygon
     points="185,153 190,150 185,147"
     fill="#5a9378"
     id="polygon46" />
  <path
     d="M320,150 C340,130 370,130 390,150"
     stroke="#5a9378"
     stroke-width="1.5"
     fill="none"
     stroke-dasharray="3,2"
     id="path47" />
  <polygon
     points="385,153 390,150 385,147"
     fill="#5a9378"
     id="polygon47" />
  <path
     d="M520,150 C540,130 570,130 590,150"
     stroke="#5a9378"
     stroke-width="1.5"
     fill="none"
     stroke-dasharray="3,2"
     id="path48" />
  <polygon
     points="585,153 590,150 585,147"
     fill="#5a9378"
     id="polygon48" />
  <path
     d="M720,150 C740,130 770,130 790,150"
     stroke="#5a9378"
     stroke-width="1.5"
     fill="none"
     stroke-dasharray="3,2"
     id="path49" />
  <polygon
     points="785,153 790,150 785,147"
     fill="#5a9378"
     id="polygon49" />
</svg>
