<?xml version="1.0" encoding="UTF-8" standalone="no"?>
<svg
   viewBox="0 0 800 800"
   version="1.1"
   id="svg62"
   sodipodi:docname="mechanisms-wheel.svg"
   inkscape:version="1.4 (e7c3feb100, 2024-10-09)"
   xmlns:inkscape="http://www.inkscape.org/namespaces/inkscape"
   xmlns:sodipodi="http://sodipodi.sourceforge.net/DTD/sodipodi-0.dtd"
   xmlns="http://www.w3.org/2000/svg"
   xmlns:svg="http://www.w3.org/2000/svg">
  <defs
     id="defs62" />
  <sodipodi:namedview
     id="namedview62"
     pagecolor="#ffffff"
     bordercolor="#000000"
     borderopacity="0.25"
     inkscape:showpageshadow="2"
     inkscape:pageopacity="0.0"
     inkscape:pagecheckerboard="0"
     inkscape:deskcolor="#d1d1d1"
     inkscape:zoom="1.0575"
     inkscape:cx="140.42553"
     inkscape:cy="377.30496"
     inkscape:window-width="2520"
     inkscape:window-height="1048"
     inkscape:window-x="0"
     inkscape:window-y="0"
     inkscape:window-maximized="1"
     inkscape:current-layer="svg62" />
  <!-- Background -->
  <rect
     width="800"
     height="800"
     fill="#f8f7f2"
     rx="15"
     ry="15"
     id="rect1"
     x="1.0029883"
     y="-0.33432946" />
  <path
     d="M0,800 C200,750 400,780 600,750 S750,700 800,730 V800 H0 Z"
     fill="#e7f0ea"
     opacity="0.3"
     id="path1" />
  <path
     d="M800,0 C600,50 500,30 300,60 S50,20 0,40 V0 H800 Z"
     fill="#e7f0ea"
     opacity="0.3"
     id="path2" />
  <!-- Title -->
  <g
     transform="translate(400, 60)"
     id="g2">
    <rect
       x="-150"
       y="-25"
       width="300"
       height="40"
       rx="10"
       ry="10"
       fill="#3a866c"
       opacity="0.9"
       id="rect2" />
    <text
       x="0"
       y="5"
       text-anchor="middle"
       font-family="Arial, sans-serif"
       font-size="18"
       font-weight="bold"
       fill="#ffffff"
       id="text2">Mechanisms Wheel</text>
  </g>
  <!-- Central Hub -->
  <g
     transform="translate(400, 400)"
     id="g6">
    <circle
       cx="0"
       cy="0"
       r="90"
       fill="#ffffff"
       stroke="#3a866c"
       stroke-width="3"
       id="circle2" />
    <circle
       cx="0"
       cy="0"
       r="80"
       fill="#f0f7f4"
       id="circle3" />
    <text
       text-anchor="middle"
       font-family="Arial, sans-serif"
       fill="#3a866c"
       id="text6"><tspan
         x="0"
         y="-30"
         font-size="16"
         font-weight="bold"
         id="tspan3">Religious &amp;</tspan><tspan
         x="0"
         y="-10"
         font-size="16"
         font-weight="bold"
         id="tspan4">Spiritual</tspan><tspan
         x="0"
         y="10"
         font-size="16"
         font-weight="bold"
         id="tspan5">Dialogue</tspan><tspan
         x="0"
         y="30"
         font-size="16"
         font-weight="bold"
         id="tspan6">Framework</tspan></text>
    <!-- Decorative element -->
    <circle
       cx="0"
       cy="0"
       r="60"
       fill="none"
       stroke="#5a9378"
       stroke-width="1"
       stroke-dasharray="3,3"
       opacity="0.5"
       id="circle6" />
  </g>
  <!-- Mechanism 1: Dialogue Platforms - Top -->
  <g
     transform="translate(400, 180)"
     id="g13">
    <circle
       cx="0"
       cy="0"
       r="80"
       fill="#ffffff"
       stroke="#5a9378"
       stroke-width="2"
       id="circle7" />
    <circle
       cx="0"
       cy="0"
       r="75"
       fill="#f7f9f8"
       id="circle8" />
    <text
       text-anchor="middle"
       font-family="Arial, sans-serif"
       fill="#3a866c"
       id="text9"><tspan
         x="0"
         y="-25"
         font-size="16"
         font-weight="bold"
         id="tspan8">Dialogue</tspan><tspan
         x="0"
         y="-5"
         font-size="16"
         font-weight="bold"
         id="tspan9">Platforms</tspan></text>
    <!-- Icon: People in dialogue -->
    <g
       transform="translate(0, 30) scale(0.9)"
       id="g12">
      <circle
         cx="-20"
         cy="-10"
         r="15"
         fill="#5a9378"
         opacity="0.6"
         id="circle9" />
      <circle
         cx="20"
         cy="-10"
         r="15"
         fill="#5a9378"
         opacity="0.6"
         id="circle10" />
      <path
         d="M-10,-10 L10,-10"
         stroke="#ffffff"
         stroke-width="2"
         id="path10" />
      <path
         d="M-15,-20 C-10,-25 -5,-25 0,-20"
         stroke="#ffffff"
         stroke-width="1.5"
         fill="none"
         id="path11" />
      <path
         d="M15,-20 C10,-25 5,-25 0,-20"
         stroke="#ffffff"
         stroke-width="1.5"
         fill="none"
         id="path12" />
    </g>
    <!-- Key features -->
    <text
       text-anchor="middle"
       font-family="Arial, sans-serif"
       font-size="10"
       fill="#3a866c"
       id="text13"><tspan
         x="0"
         y="45"
         id="tspan12">• Global Summits</tspan><tspan
         x="0"
         y="60"
         id="tspan13">• Regional Workshops</tspan></text>
  </g>
  <!-- Mechanism 2: Ethics Charter - Top Right -->
  <circle
     cx="576"
     cy="224"
     r="80"
     fill="#ffffff"
     stroke="#5a9378"
     stroke-width="2"
     id="circle13" />
  <circle
     cx="576"
     cy="224"
     r="75"
     fill="#f7f9f8"
     id="circle14" />
  <text
     text-anchor="middle"
     font-family="Arial, sans-serif"
     fill="#3a866c"
     id="text15"
     x="576"
     y="200"><tspan
       x="576"
       y="175"
       font-size="16px"
       font-weight="bold"
       id="tspan14">Ethics</tspan><tspan
       x="576"
       y="195"
       font-size="16px"
       font-weight="bold"
       id="tspan15">Charter</tspan></text>
  <g
     transform="matrix(0.9,0,0,0.9,576,224)"
     id="g17">
    <path
       d="M -25,-15 H 25 V 25 H -25 Z"
       fill="#5a9378"
       opacity="0.3"
       stroke="#5a9378"
       stroke-width="1"
       id="path15" />
    <path
       d="M -15,-5 H 15 M -15,5 H 15 M -15,15 H 5"
       stroke="#5a9378"
       stroke-width="2"
       id="path16" />
    <circle
       cx="-20"
       cy="-20"
       r="5"
       fill="#5a9378"
       opacity="0.6"
       id="circle16" />
    <path
       d="m -20,-20 5,5"
       stroke="#5a9378"
       stroke-width="1"
       id="path17" />
  </g>
  <text
     text-anchor="middle"
     font-family="Arial, sans-serif"
     font-size="10px"
     fill="#3a866c"
     id="text18"
     x="576"
     y="216"><tspan
       x="576"
       y="261"
       id="tspan17">• Shared Values</tspan><tspan
       x="576"
       y="276"
       id="tspan18">• Tradition-Specific Context</tspan></text>
  <!-- Mechanism 3: Policy Translation Labs - Right -->
  <circle
     cx="620"
     cy="400"
     r="80"
     fill="#ffffff"
     stroke="#5a9378"
     stroke-width="2"
     id="circle18" />
  <circle
     cx="620"
     cy="400"
     r="75"
     fill="#f7f9f8"
     id="circle19" />
  <text
     text-anchor="middle"
     font-family="Arial, sans-serif"
     fill="#3a866c"
     id="text20"
     x="620"
     y="398"><tspan
       x="620"
       y="373"
       font-size="16px"
       font-weight="bold"
       id="tspan19">Policy</tspan><tspan
       x="620"
       y="393"
       font-size="16px"
       font-weight="bold"
       id="tspan20">Translation Labs</tspan></text>
  <g
     transform="matrix(0.9,0,0,0.9,620,412)"
     id="g21">
    <path
       d="m -30,-10 20,20 m 20,-20 20,20"
       stroke="#5a9378"
       stroke-width="2"
       id="path20" />
    <circle
       cx="-20"
       cy="0"
       r="10"
       fill="#5a9378"
       opacity="0.6"
       id="circle20" />
    <rect
       x="10"
       y="-10"
       width="20"
       height="20"
       fill="#5a9378"
       opacity="0.6"
       id="rect20" />
    <path
       d="M -5,0 H 5"
       stroke="#5a9378"
       stroke-width="3"
       id="path21" />
  </g>
  <text
     text-anchor="middle"
     font-family="Arial, sans-serif"
     font-size="10px"
     fill="#3a866c"
     id="text22"
     x="620"
     y="388"><tspan
       x="620"
       y="433"
       id="tspan21">• Spiritual to Governance</tspan><tspan
       x="620"
       y="448"
       id="tspan22">• Cross-Domain Applications</tspan></text>
  <!-- Mechanism 4: Training & Capacity - Bottom Right -->
  <circle
     cx="576"
     cy="576"
     r="80"
     fill="#ffffff"
     stroke="#5a9378"
     stroke-width="2"
     id="circle22" />
  <circle
     cx="576"
     cy="576"
     r="75"
     fill="#f7f9f8"
     id="circle23" />
  <text
     text-anchor="middle"
     font-family="Arial, sans-serif"
     fill="#3a866c"
     id="text24"
     x="576"
     y="576"><tspan
       x="576"
       y="551"
       font-size="16px"
       font-weight="bold"
       id="tspan23">Training &amp;</tspan><tspan
       x="576"
       y="571"
       font-size="16px"
       font-weight="bold"
       id="tspan24">Capacity</tspan></text>
  <g
     transform="matrix(0.9,0,0,0.9,576,596)"
     id="g28">
    <path
       d="m -20,0 c 10,-20 30,-20 40,0"
       stroke="#5a9378"
       stroke-width="2"
       fill="none"
       id="path24" />
    <path
       d="M -15,-5 -10,5 -5,-5 0,5 5,-5 10,5 15,-5"
       stroke="#5a9378"
       stroke-width="1.5"
       fill="none"
       id="path25" />
    <circle
       cx="-15"
       cy="-5"
       r="3"
       fill="#5a9378"
       opacity="0.6"
       id="circle25" />
    <circle
       cx="-5"
       cy="-5"
       r="3"
       fill="#5a9378"
       opacity="0.6"
       id="circle26" />
    <circle
       cx="5"
       cy="-5"
       r="3"
       fill="#5a9378"
       opacity="0.6"
       id="circle27" />
    <circle
       cx="15"
       cy="-5"
       r="3"
       fill="#5a9378"
       opacity="0.6"
       id="circle28" />
  </g>
  <text
     text-anchor="middle"
     font-family="Arial, sans-serif"
     font-size="10px"
     fill="#3a866c"
     id="text29"
     x="576"
     y="566"><tspan
       x="576"
       y="611"
       id="tspan28">• Dialogue Facilitation</tspan><tspan
       x="576"
       y="626"
       id="tspan29">• Leadership Development</tspan></text>
  <!-- Mechanism 5: Monitoring & Evaluation - Bottom -->
  <circle
     cx="400"
     cy="620"
     r="80"
     fill="#ffffff"
     stroke="#5a9378"
     stroke-width="2"
     id="circle29" />
  <circle
     cx="400"
     cy="620"
     r="75"
     fill="#f7f9f8"
     id="circle30" />
  <text
     text-anchor="middle"
     font-family="Arial, sans-serif"
     fill="#3a866c"
     id="text31"
     x="400"
     y="618"><tspan
       x="400"
       y="593"
       font-size="16px"
       font-weight="bold"
       id="tspan30">Monitoring &amp;</tspan><tspan
       x="400"
       y="613"
       font-size="16px"
       font-weight="bold"
       id="tspan31">Evaluation</tspan></text>
  <g
     transform="matrix(0.9,0,0,0.9,400,630)"
     id="g33">
    <path
       d="M -30,-10 H 30 V 20 H -30 Z"
       fill="#5a9378"
       opacity="0.2"
       stroke="#5a9378"
       stroke-width="1"
       id="path31" />
    <path
       d="M -20,0 -10,10 0,5 10,15 20,0"
       stroke="#5a9378"
       stroke-width="2"
       fill="none"
       id="path32" />
    <path
       d="M -25,-5 H 25 M -25,10 H 25"
       stroke="#5a9378"
       stroke-width="1"
       opacity="0.5"
       id="path33" />
  </g>
  <text
     text-anchor="middle"
     font-family="Arial, sans-serif"
     font-size="10px"
     fill="#3a866c"
     id="text34"
     x="400"
     y="616"><tspan
       x="400"
       y="661"
       id="tspan33">• Impact Metrics</tspan><tspan
       x="400"
       y="676"
       id="tspan34">• Annual Reporting</tspan></text>
  <!-- Mechanism 6: Digital Access - Bottom Left -->
  <circle
     cx="224"
     cy="576"
     r="80"
     fill="#ffffff"
     stroke="#5a9378"
     stroke-width="2"
     id="circle34" />
  <circle
     cx="224"
     cy="576"
     r="75"
     fill="#f7f9f8"
     id="circle35" />
  <text
     text-anchor="middle"
     font-family="Arial, sans-serif"
     fill="#3a866c"
     id="text36"
     x="224"
     y="576"><tspan
       x="224"
       y="551"
       font-size="16px"
       font-weight="bold"
       id="tspan35">Digital</tspan><tspan
       x="224"
       y="571"
       font-size="16px"
       font-weight="bold"
       id="tspan36">Access</tspan></text>
  <g
     transform="matrix(0.9,0,0,0.9,224,592)"
     id="g37">
    <rect
       x="-25"
       y="-15"
       width="30"
       height="25"
       rx="3"
       ry="3"
       fill="#5a9378"
       opacity="0.4"
       id="rect36" />
    <path
       d="m -20,-10 h 15 m -15,5 h 15 m -15,5 h 10"
       stroke="#5a9378"
       stroke-width="1.5"
       id="path36" />
    <path
       d="M 15,-15 25,5 H 5 Z"
       fill="#5a9378"
       opacity="0.4"
       id="path37" />
    <circle
       cx="15"
       cy="-5"
       r="5"
       fill="#5a9378"
       opacity="0.4"
       id="circle37" />
  </g>
  <text
     text-anchor="middle"
     font-family="Arial, sans-serif"
     font-size="10px"
     fill="#3a866c"
     id="text38"
     x="224"
     y="570"><tspan
       x="224"
       y="615"
       id="tspan37">• Multilingual Platforms</tspan><tspan
       x="224"
       y="630"
       id="tspan38">• Offline Alternatives</tspan></text>
  <!-- Mechanism 7: Truth & Reconciliation - Left -->
  <circle
     cx="180"
     cy="400"
     r="80"
     fill="#ffffff"
     stroke="#5a9378"
     stroke-width="2"
     id="circle38" />
  <circle
     cx="180"
     cy="400"
     r="75"
     fill="#f7f9f8"
     id="circle39" />
  <text
     text-anchor="middle"
     font-family="Arial, sans-serif"
     fill="#3a866c"
     id="text40"
     x="180"
     y="400"><tspan
       x="180"
       y="375"
       font-size="16px"
       font-weight="bold"
       id="tspan39">Truth &amp;</tspan><tspan
       x="180"
       y="395"
       font-size="16px"
       font-weight="bold"
       id="tspan40">Reconciliation</tspan></text>
  <g
     transform="matrix(0.9,0,0,0.9,180,426)"
     id="g42">
    <path
       d="m -25,-10 c 10,-15 40,-15 50,0 -10,15 -40,15 -50,0 z"
       fill="#5a9378"
       opacity="0.3"
       stroke="#5a9378"
       stroke-width="1"
       id="path40" />
    <path
       d="M -10,-10 H 10 M 0,-15 v 10"
       stroke="#5a9378"
       stroke-width="2"
       id="path41" />
    <path
       d="M -10,0 C -5,5 5,5 10,0"
       stroke="#5a9378"
       stroke-width="1.5"
       fill="none"
       id="path42" />
  </g>
  <text
     text-anchor="middle"
     font-family="Arial, sans-serif"
     font-size="10px"
     fill="#3a866c"
     id="text43"
     x="170"
     y="400"><tspan
       x="170"
       y="445"
       id="tspan42">• Historical Healing</tspan><tspan
       x="170"
       y="460"
       id="tspan43">• Building Trust</tspan></text>
  <!-- Mechanism 8: Wisdom Repository - Top Left -->
  <circle
     cx="224"
     cy="224"
     r="80"
     fill="#ffffff"
     stroke="#5a9378"
     stroke-width="2"
     id="circle43" />
  <circle
     cx="224"
     cy="224"
     r="75"
     fill="#f7f9f8"
     id="circle44" />
  <text
     text-anchor="middle"
     font-family="Arial, sans-serif"
     fill="#3a866c"
     id="text45"
     x="224"
     y="224"><tspan
       x="224"
       y="199"
       font-size="16px"
       font-weight="bold"
       id="tspan44">Wisdom</tspan><tspan
       x="224"
       y="219"
       font-size="16px"
       font-weight="bold"
       id="tspan45">Repository</tspan></text>
  <g
     transform="matrix(0.9,0,0,0.9,224,240)"
     id="g47">
    <path
       d="M -20,-15 V 15 H 20 V -15 Z"
       fill="#5a9378"
       opacity="0.2"
       stroke="#5a9378"
       stroke-width="1"
       id="path45" />
    <path
       d="m -15,-10 h 30 m -30,5 h 30 m -30,5 h 30 m -30,5 h 30 m -30,5 h 30"
       stroke="#5a9378"
       stroke-width="1"
       id="path46" />
    <circle
       cx="-25"
       cy="0"
       r="5"
       fill="#5a9378"
       opacity="0.5"
       id="circle46" />
    <circle
       cx="25"
       cy="0"
       r="5"
       fill="#5a9378"
       opacity="0.5"
       id="circle47" />
    <path
       d="m -30,0 h 8 m 44,0 h 8"
       stroke="#5a9378"
       stroke-width="1"
       id="path47" />
  </g>
  <text
     text-anchor="middle"
     font-family="Arial, sans-serif"
     font-size="10px"
     fill="#3a866c"
     id="text48"
     x="224"
     y="222"><tspan
       x="224"
       y="267"
       id="tspan47">• Documentation</tspan><tspan
       x="224"
       y="282"
       id="tspan48">• Cross-Tradition Sharing</tspan></text>
  <!-- Connecting Lines to Center -->
  <g
     stroke="#3a866c"
     stroke-width="3"
     fill="none"
     id="g55">
    <!-- Dialogue Platforms to Center -->
    <path
       d="M400,260 L400,310"
       id="path48" />
    <!-- Ethics Charter to Center -->
    <path
       d="M517,293 L460,340"
       id="path49" />
    <!-- Policy Translation Labs to Center -->
    <path
       d="M540,400 L490,400"
       id="path50" />
    <!-- Training & Capacity to Center -->
    <path
       d="M517,507 L460,460"
       id="path51" />
    <!-- Monitoring & Evaluation to Center -->
    <path
       d="M400,540 L400,490"
       id="path52" />
    <!-- Digital Access to Center -->
    <path
       d="M283,507 L340,460"
       id="path53" />
    <!-- Truth & Reconciliation to Center -->
    <path
       d="M260,400 L310,400"
       id="path54" />
    <!-- Wisdom Repository to Center -->
    <path
       d="M283,293 L340,340"
       id="path55" />
  </g>
  <!-- Connecting Arcs Between Adjacent Mechanisms -->
  <g
     stroke="#5a9378"
     stroke-width="2"
     fill="none"
     stroke-dasharray="5,3"
     id="g61">
    <path
       d="M460,200 L540,250"
       id="path56" />
    <path
       d="M620,320 L620,480"
       id="path57" />
    <path
       d="M540,550 L460,600"
       id="path58" />
    <path
       d="M260,550 L340,600"
       id="path59" />
    <path
       d="M180,320 L180,480"
       id="path60" />
    <path
       d="M260,250 L340,200"
       id="path61" />
  </g>
  <!-- Outer Connecting Circle -->
  <circle
     cx="400"
     cy="400"
     r="275"
     stroke="#5a9378"
     stroke-width="1.5"
     fill="none"
     stroke-dasharray="10,10"
     opacity="0.6"
     id="circle61" />
  <!-- Legend -->
  <rect
     x="150.02545"
     y="710.02545"
     width="552.90417"
     height="39.949097"
     rx="11.058084"
     ry="9.9872742"
     fill="#ffffff"
     stroke="#3a866c"
     stroke-width="1.0509"
     id="rect61" />
  <line
     x1="190"
     y1="730"
     x2="230"
     y2="730"
     stroke="#3a866c"
     stroke-width="3"
     id="line61" />
  <text
     x="245"
     y="735"
     font-family="Arial, sans-serif"
     font-size="12px"
     fill="#555555"
     id="text61">Core Implementation Pathways</text>
  <line
     x1="450"
     y1="730"
     x2="490"
     y2="730"
     stroke="#5a9378"
     stroke-width="2"
     stroke-dasharray="5, 3"
     id="line62" />
  <text
     x="505"
     y="735"
     font-family="Arial, sans-serif"
     font-size="12px"
     fill="#555555"
     id="text62">Inter-Mechanism Collaboration</text>
</svg>
