<svg xmlns="http://www.w3.org/2000/svg" width="100" height="100" viewBox="0 0 100 100" fill="none">
  <!-- Outer circle representing global scope and local governance -->
  <circle cx="50" cy="50" r="48" stroke="#1E40AF" stroke-width="2.5" fill="white"/>
  
  <!-- Local level nodes (small dots around the outer edge) -->
  <circle cx="50" cy="2" r="2" fill="#3B82F6" fill-opacity="0.6"/>
  <circle cx="74" cy="8" r="2" fill="#3B82F6" fill-opacity="0.6"/>
  <circle cx="92" cy="26" r="2" fill="#3B82F6" fill-opacity="0.6"/>
  <circle cx="98" cy="50" r="2" fill="#3B82F6" fill-opacity="0.6"/>
  <circle cx="92" cy="74" r="2" fill="#3B82F6" fill-opacity="0.6"/>
  <circle cx="74" cy="92" r="2" fill="#3B82F6" fill-opacity="0.6"/>
  <circle cx="50" cy="98" r="2" fill="#3B82F6" fill-opacity="0.6"/>
  <circle cx="26" cy="92" r="2" fill="#3B82F6" fill-opacity="0.6"/>
  <circle cx="8" cy="74" r="2" fill="#3B82F6" fill-opacity="0.6"/>
  <circle cx="2" cy="50" r="2" fill="#3B82F6" fill-opacity="0.6"/>
  <circle cx="8" cy="26" r="2" fill="#3B82F6" fill-opacity="0.6"/>
  <circle cx="26" cy="8" r="2" fill="#3B82F6" fill-opacity="0.6"/>
  
  <!-- Regional level (second circle) -->
  <circle cx="50" cy="50" r="35" stroke="#2563EB" stroke-width="1.5" stroke-opacity="0.8" fill="none"/>
  
  <!-- Regional level nodes (medium-sized at key positions) -->
  <circle cx="50" cy="15" r="3.5" fill="#2563EB" fill-opacity="0.8"/>
  <circle cx="85" cy="50" r="3.5" fill="#2563EB" fill-opacity="0.8"/>
  <circle cx="50" cy="85" r="3.5" fill="#2563EB" fill-opacity="0.8"/>
  <circle cx="15" cy="50" r="3.5" fill="#2563EB" fill-opacity="0.8"/>
  <circle cx="71" cy="71" r="3.5" fill="#2563EB" fill-opacity="0.8"/>
  <circle cx="71" cy="29" r="3.5" fill="#2563EB" fill-opacity="0.8"/>
  <circle cx="29" cy="71" r="3.5" fill="#2563EB" fill-opacity="0.8"/>
  <circle cx="29" cy="29" r="3.5" fill="#2563EB" fill-opacity="0.8"/>
  
  <!-- National level (inner circle) -->
  <circle cx="50" cy="50" r="20" stroke="#2563EB" stroke-width="1.5" stroke-opacity="0.9" fill="none"/>
  
  <!-- National level nodes (smaller) -->
  <circle cx="50" cy="30" r="2.5" fill="#1E40AF" fill-opacity="0.9"/>
  <circle cx="70" cy="50" r="2.5" fill="#1E40AF" fill-opacity="0.9"/>
  <circle cx="50" cy="70" r="2.5" fill="#1E40AF" fill-opacity="0.9"/>
  <circle cx="30" cy="50" r="2.5" fill="#1E40AF" fill-opacity="0.9"/>
  <circle cx="63" cy="63" r="2.5" fill="#1E40AF" fill-opacity="0.9"/>
  <circle cx="63" cy="37" r="2.5" fill="#1E40AF" fill-opacity="0.9"/>
  <circle cx="37" cy="63" r="2.5" fill="#1E40AF" fill-opacity="0.9"/>
  <circle cx="37" cy="37" r="2.5" fill="#1E40AF" fill-opacity="0.9"/>
  
  <!-- Connecting lines showing interdependence between governance levels -->
  <!-- National to Regional connections -->
  <line x1="50" y1="30" x2="50" y2="15" stroke="#2563EB" stroke-width="1" stroke-opacity="0.7"/>
  <line x1="70" y1="50" x2="85" y2="50" stroke="#2563EB" stroke-width="1" stroke-opacity="0.7"/>
  <line x1="50" y1="70" x2="50" y2="85" stroke="#2563EB" stroke-width="1" stroke-opacity="0.7"/>
  <line x1="30" y1="50" x2="15" y2="50" stroke="#2563EB" stroke-width="1" stroke-opacity="0.7"/>
  
  <line x1="63" y1="63" x2="71" y2="71" stroke="#2563EB" stroke-width="1" stroke-opacity="0.7"/>
  <line x1="63" y1="37" x2="71" y2="29" stroke="#2563EB" stroke-width="1" stroke-opacity="0.7"/>
  <line x1="37" y1="63" x2="29" y2="71" stroke="#2563EB" stroke-width="1" stroke-opacity="0.7"/>
  <line x1="37" y1="37" x2="29" y2="29" stroke="#2563EB" stroke-width="1" stroke-opacity="0.7"/>
  
  <!-- Global core (center) -->
  <circle cx="50" cy="50" r="8" fill="#1E40AF"/>
  
  <!-- Global to National connections -->
  <line x1="50" y1="42" x2="50" y2="30" stroke="#1E40AF" stroke-width="1" stroke-opacity="0.8"/>
  <line x1="58" y1="50" x2="70" y2="50" stroke="#1E40AF" stroke-width="1" stroke-opacity="0.8"/>
  <line x1="50" y1="58" x2="50" y2="70" stroke="#1E40AF" stroke-width="1" stroke-opacity="0.8"/>
  <line x1="42" y1="50" x2="30" y2="50" stroke="#1E40AF" stroke-width="1" stroke-opacity="0.8"/>
  
  <line x1="56" y1="56" x2="63" y2="63" stroke="#1E40AF" stroke-width="1" stroke-opacity="0.8"/>
  <line x1="56" y1="44" x2="63" y2="37" stroke="#1E40AF" stroke-width="1" stroke-opacity="0.8"/>
  <line x1="44" y1="56" x2="37" y2="63" stroke="#1E40AF" stroke-width="1" stroke-opacity="0.8"/>
  <line x1="44" y1="44" x2="37" y2="37" stroke="#1E40AF" stroke-width="1" stroke-opacity="0.8"/>
</svg>
