<?xml version="1.0" encoding="UTF-8" standalone="no"?>
<svg
   viewBox="0 0 800 800"
   version="1.1"
   id="svg50"
   sodipodi:docname="integration-diagram.svg"
   width="800"
   height="800"
   inkscape:version="1.4 (e7c3feb100, 2024-10-09)"
   xmlns:inkscape="http://www.inkscape.org/namespaces/inkscape"
   xmlns:sodipodi="http://sodipodi.sourceforge.net/DTD/sodipodi-0.dtd"
   xmlns="http://www.w3.org/2000/svg"
   xmlns:svg="http://www.w3.org/2000/svg">
  <defs
     id="defs50" />
  <sodipodi:namedview
     id="namedview50"
     pagecolor="#ffffff"
     bordercolor="#000000"
     borderopacity="0.25"
     inkscape:showpageshadow="2"
     inkscape:pageopacity="0.0"
     inkscape:pagecheckerboard="0"
     inkscape:deskcolor="#d1d1d1"
     inkscape:zoom="0.705"
     inkscape:cx="-247.51773"
     inkscape:cy="358.86525"
     inkscape:window-width="2520"
     inkscape:window-height="1048"
     inkscape:window-x="0"
     inkscape:window-y="0"
     inkscape:window-maximized="1"
     inkscape:current-layer="svg50" />
  <!-- Background -->
  <rect
     width="800"
     height="798.58154"
     fill="#f8f7f2"
     rx="15"
     ry="19.964539"
     id="rect1"
     x="0"
     y="0"
     style="stroke-width:1.15368" />
  <path
     d="M 0,800 C 200,750 400,780 600,700 800,620 750,650 800,600 v 200 z"
     fill="#e7f0ea"
     opacity="0.3"
     id="path1" />
  <path
     d="M 800,0 C 600,50 500,30 300,60 100,90 50,20 0,40 V 0 Z"
     fill="#e7f0ea"
     opacity="0.3"
     id="path2" />
  <!-- Title -->
  <g
     transform="translate(400,33)"
     id="g2">
    <rect
       x="-180"
       y="-25"
       width="360"
       height="40"
       rx="10"
       ry="10"
       fill="#3a866c"
       opacity="0.9"
       id="rect2" />
    <text
       x="0"
       y="5"
       text-anchor="middle"
       font-family="Arial, sans-serif"
       font-size="18px"
       font-weight="bold"
       fill="#ffffff"
       id="text2">Integration with Global Governance</text>
  </g>
  <!-- Center Circle: Religious & Spiritual Dialogue -->
  <circle
     cx="400"
     cy="388"
     r="120"
     fill="#f0f7f4"
     stroke="#3a866c"
     stroke-width="3"
     id="circle2" />
  <circle
     cx="400"
     cy="388"
     r="110"
     fill="#ffffff"
     id="circle3" />
  <text
     text-anchor="middle"
     font-family="Arial, sans-serif"
     fill="#3a866c"
     id="text4"
     x="400"
     y="360"><tspan
       x="400"
       y="320"
       font-size="18px"
       font-weight="bold"
       id="tspan3">Religious &amp; Spiritual</tspan><tspan
       x="400"
       y="345"
       font-size="18px"
       font-weight="bold"
       id="tspan4">Dialogue Framework</tspan></text>
  <g
     transform="matrix(0.9,0,0,0.9,400,392)"
     id="g9">
    <!-- Circular pattern of symbols -->
    <circle
       cx="0"
       cy="0"
       r="50"
       fill="none"
       stroke="#5a9378"
       stroke-width="1"
       stroke-dasharray="3, 2"
       opacity="0.7"
       id="circle4" />
    <!-- Different religious/spiritual symbols arranged in a circle -->
    <!-- Abrahamic/Star symbol -->
    <path
       d="m 0,-50 5,15 h 15 l -10,10 5,15 -15,-10 -15,10 5,-15 -10,-10 h 15 z"
       fill="none"
       stroke="#5a9378"
       stroke-width="1.5"
       opacity="0.7"
       transform="scale(0.6)"
       id="path4" />
    <!-- Dharmic/Om-inspired symbol -->
    <path
       d="m 40,-30 c 5,-5 15,-5 20,5 5,10 0,20 -10,20 -10,0 -15,-10 -10,-20 2,-5 6,-5 10,0"
       fill="none"
       stroke="#5a9378"
       stroke-width="1.5"
       opacity="0.7"
       transform="scale(0.6)"
       id="path5" />
    <!-- Indigenous/Natural symbol -->
    <path
       d="M 50,20 C 60,15 65,25 60,35 55,45 45,45 40,35 35,25 40,15 50,20 m -5,5 10,10 M 55,25 45,35"
       fill="none"
       stroke="#5a9378"
       stroke-width="1.5"
       opacity="0.7"
       transform="scale(0.6)"
       id="path6" />
    <!-- Eastern/Yin-Yang inspired -->
    <path
       d="M 0,55 C -10,55 -20,45 -20,35 -20,25 -10,15 0,15 10,15 20,25 20,35 20,45 10,55 0,55 M 0,15 c -5,0 -10,5 -10,10 0,5 5,10 10,10 C 5,35 10,30 10,25 10,20 5,15 0,15 m -5,10 c 0,-2 2,-4 5,-4 3,0 5,2 5,4 0,2 -2,4 -5,4 -3,0 -5,-2 -5,-4"
       fill="none"
       stroke="#5a9378"
       stroke-width="1.5"
       opacity="0.7"
       transform="scale(0.6)"
       id="path7" />
    <!-- Humanist symbol -->
    <circle
       cx="-50"
       cy="0"
       r="7"
       fill="none"
       stroke="#5a9378"
       stroke-width="1.5"
       opacity="0.7"
       transform="scale(0.6)"
       id="circle7" />
    <path
       d="M -50,-7 V 7 m -7,-7 h 14"
       stroke="#5a9378"
       stroke-width="1.5"
       opacity="0.7"
       transform="scale(0.6)"
       id="path8" />
    <!-- African traditional symbol -->
    <path
       d="m -40,30 10,-10 10,10 -10,10 z m 0,0 h 20 M -30,20 v 20"
       fill="none"
       stroke="#5a9378"
       stroke-width="1.5"
       opacity="0.7"
       transform="scale(0.6)"
       id="path9" />
  </g>
  <g
     transform="translate(400,448)"
     id="g11">
    <text
       text-anchor="middle"
       font-family="Arial, sans-serif"
       font-size="11px"
       fill="#3a866c"
       id="text11"><tspan
         x="0"
         y="0"
         id="tspan9">• Cross-Domain Working Groups</tspan><tspan
         x="0"
         y="18"
         id="tspan10">• Knowledge Co-Production</tspan><tspan
         x="0"
         y="36"
         id="tspan11">• AI Ethics Guidelines</tspan></text>
  </g>
  <!-- Climate Domain -->
  <g
     transform="translate(205,173)"
     id="g18">
    <circle
       cx="0"
       cy="0"
       r="80"
       fill="#ffffff"
       stroke="#5a9378"
       stroke-width="2"
       id="circle12" />
    <circle
       cx="0"
       cy="0"
       r="75"
       fill="#f7f9f8"
       opacity="0.7"
       id="circle13" />
    <text
       text-anchor="middle"
       font-family="Arial, sans-serif"
       fill="#3a866c"
       id="text14"><tspan
         x="0"
         y="-25"
         font-size="16px"
         font-weight="bold"
         id="tspan13">Climate</tspan><tspan
         x="0"
         y="-5"
         font-size="16px"
         font-weight="bold"
         id="tspan14">Governance</tspan></text>
    <!-- Climate symbol -->
    <g
       transform="translate(0,25)"
       id="g17">
      <path
         d="M -10,10 C -20,0 -20,-10 -10,-15 0,-20 10,-10 10,0 10,10 0,20 -10,10 Z"
         fill="#5a9378"
         opacity="0.3"
         id="path14" />
      <path
         d="M 10,10 C 0,0 0,-10 10,-15 20,-20 30,-10 30,0 30,10 20,20 10,10 Z"
         fill="#5a9378"
         opacity="0.3"
         id="path15" />
      <path
         d="M -15,0 C -10,-10 0,-10 5,0 0,10 -10,10 -15,0 Z"
         fill="#5a9378"
         opacity="0.3"
         id="path16" />
      <path
         d="M 15,0 C 20,-10 30,-10 35,0 30,10 20,10 15,0 Z"
         fill="#5a9378"
         opacity="0.3"
         id="path17" />
    </g>
  </g>
  <!-- Economic Domain -->
  <g
     transform="translate(205,611)"
     id="g23">
    <circle
       cx="0"
       cy="0"
       r="80"
       fill="#ffffff"
       stroke="#5a9378"
       stroke-width="2"
       id="circle18" />
    <circle
       cx="0"
       cy="0"
       r="75"
       fill="#f7f9f8"
       opacity="0.7"
       id="circle19" />
    <text
       text-anchor="middle"
       font-family="Arial, sans-serif"
       fill="#3a866c"
       id="text20"><tspan
         x="0"
         y="-25"
         font-size="16px"
         font-weight="bold"
         id="tspan19">Economic</tspan><tspan
         x="0"
         y="-5"
         font-size="16px"
         font-weight="bold"
         id="tspan20">Justice</tspan></text>
    <!-- Economic symbol -->
    <g
       transform="translate(0,25)"
       id="g22">
      <circle
         cx="-20"
         cy="0"
         r="12"
         fill="#5a9378"
         opacity="0.3"
         id="circle20" />
      <circle
         cx="0"
         cy="0"
         r="15"
         fill="#5a9378"
         opacity="0.3"
         id="circle21" />
      <circle
         cx="20"
         cy="0"
         r="10"
         fill="#5a9378"
         opacity="0.3"
         id="circle22" />
      <path
         d="M -20,-15 V 15 M 0,-20 v 40 m 20,-35 v 30"
         stroke="#5a9378"
         stroke-width="1"
         opacity="0.5"
         id="path22" />
    </g>
  </g>
  <!-- Tech Ethics Domain -->
  <g
     transform="translate(595,173)"
     id="g28">
    <circle
       cx="0"
       cy="0"
       r="80"
       fill="#ffffff"
       stroke="#5a9378"
       stroke-width="2"
       id="circle23" />
    <circle
       cx="0"
       cy="0"
       r="75"
       fill="#f7f9f8"
       opacity="0.7"
       id="circle24" />
    <text
       text-anchor="middle"
       font-family="Arial, sans-serif"
       fill="#3a866c"
       id="text25"><tspan
         x="0"
         y="-25"
         font-size="16px"
         font-weight="bold"
         id="tspan24">Technology</tspan><tspan
         x="0"
         y="-5"
         font-size="16px"
         font-weight="bold"
         id="tspan25">Ethics</tspan></text>
    <!-- Technology symbol -->
    <g
       transform="translate(0,25)"
       id="g27">
      <path
         d="M -20,-10 H 20 V 10 H -20 Z"
         fill="#5a9378"
         opacity="0.2"
         id="path25" />
      <circle
         cx="-10"
         cy="0"
         r="5"
         fill="#5a9378"
         opacity="0.3"
         id="circle25" />
      <circle
         cx="0"
         cy="0"
         r="5"
         fill="#5a9378"
         opacity="0.3"
         id="circle26" />
      <circle
         cx="10"
         cy="0"
         r="5"
         fill="#5a9378"
         opacity="0.3"
         id="circle27" />
      <path
         d="M -25,-15 V 15 M 25,-15 V 15"
         stroke="#5a9378"
         stroke-width="1"
         opacity="0.5"
         id="path27" />
    </g>
  </g>
  <!-- Health & Wellbeing Domain -->
  <g
     transform="translate(595,611)"
     id="g32">
    <circle
       cx="0"
       cy="0"
       r="80"
       fill="#ffffff"
       stroke="#5a9378"
       stroke-width="2"
       id="circle28" />
    <circle
       cx="0"
       cy="0"
       r="75"
       fill="#f7f9f8"
       opacity="0.7"
       id="circle29" />
    <text
       text-anchor="middle"
       font-family="Arial, sans-serif"
       fill="#3a866c"
       id="text30"><tspan
         x="0"
         y="-25"
         font-size="16px"
         font-weight="bold"
         id="tspan29">Health &amp;</tspan><tspan
         x="0"
         y="-5"
         font-size="16px"
         font-weight="bold"
         id="tspan30">Wellbeing</tspan></text>
    <!-- Health symbol -->
    <g
       transform="translate(0,25)"
       id="g31">
      <circle
         cx="0"
         cy="0"
         r="20"
         fill="#5a9378"
         opacity="0.3"
         id="circle30" />
      <path
         d="M 0,-15 V 15 M -15,0 h 30"
         stroke="#ffffff"
         stroke-width="3"
         id="path30" />
      <path
         d="m -20,-20 c 10,-5 30,-5 40,0 5,10 5,30 0,40 -10,5 -30,5 -40,0 -5,-10 -5,-30 0,-40"
         fill="none"
         stroke="#5a9378"
         stroke-width="1"
         opacity="0.7"
         id="path31" />
    </g>
  </g>
  <!-- Peace & Conflict Domain - Top -->
  <g
     transform="translate(400,138)"
     id="g36">
    <circle
       cx="0"
       cy="0"
       r="80"
       fill="#ffffff"
       stroke="#5a9378"
       stroke-width="2"
       id="circle32" />
    <circle
       cx="0"
       cy="0"
       r="75"
       fill="#f7f9f8"
       opacity="0.7"
       id="circle33" />
    <text
       text-anchor="middle"
       font-family="Arial, sans-serif"
       fill="#3a866c"
       id="text34"><tspan
         x="0"
         y="-25"
         font-size="16px"
         font-weight="bold"
         id="tspan33">Peace &amp;</tspan><tspan
         x="0"
         y="-5"
         font-size="16px"
         font-weight="bold"
         id="tspan34">Conflict</tspan></text>
    <!-- Peace symbol -->
    <g
       transform="translate(0,25)"
       id="g35">
      <circle
         cx="0"
         cy="0"
         r="25"
         fill="#5a9378"
         opacity="0.2"
         id="circle34" />
      <path
         d="M 0,-20 V 20 M -20,0 h 40 m -35,-15 30,30 m 0,-30 -30,30"
         stroke="#5a9378"
         stroke-width="1.5"
         opacity="0.7"
         id="path34" />
      <circle
         cx="0"
         cy="0"
         r="10"
         fill="#5a9378"
         opacity="0.2"
         id="circle35" />
    </g>
  </g>
  <!-- Education Domain - Bottom -->
  <g
     transform="translate(400,646)"
     id="g40">
    <circle
       cx="0"
       cy="0"
       r="80"
       fill="#ffffff"
       stroke="#5a9378"
       stroke-width="2"
       id="circle36" />
    <circle
       cx="0"
       cy="0"
       r="75"
       fill="#f7f9f8"
       opacity="0.7"
       id="circle37" />
    <text
       text-anchor="middle"
       font-family="Arial, sans-serif"
       fill="#3a866c"
       id="text38"><tspan
         x="0"
         y="-25"
         font-size="16px"
         font-weight="bold"
         id="tspan37">Education &amp;</tspan><tspan
         x="0"
         y="-5"
         font-size="16px"
         font-weight="bold"
         id="tspan38">Culture</tspan></text>
    <!-- Education symbol -->
    <g
       transform="translate(0,25)"
       id="g39">
      <path
         d="M -30,0 0,-15 30,0 0,15 Z"
         fill="#5a9378"
         opacity="0.3"
         id="path38" />
      <rect
         x="-8"
         y="15"
         width="16"
         height="10"
         fill="#5a9378"
         opacity="0.3"
         id="rect38" />
      <path
         d="M 0,15 V 25"
         stroke="#5a9378"
         stroke-width="2"
         opacity="0.7"
         id="path39" />
    </g>
  </g>
  <!-- Connecting Lines -->
  <!-- Center to Climate -->
  <path
     d="M 295.18995,293.77024 256.61536,247.81372"
     stroke="#3a866c"
     stroke-width="3"
     fill="none"
     stroke-dasharray="10, 5"
     id="path40" />
  <text
     x="388.31979"
     y="-47.314266"
     font-family="Arial, sans-serif"
     font-size="10px"
     fill="#3a866c"
     text-anchor="middle"
     id="text40"
     transform="rotate(49.990862)">Climate Ethics</text>
  <!-- Center to Tech Ethics -->
  <path
     d="m 504.37015,294.22896 36.76017,-47.42035"
     stroke="#3a866c"
     stroke-width="3"
     fill="none"
     stroke-dasharray="10, 5"
     id="path41" />
  <text
     x="104.43602"
     y="567.66925"
     font-family="Arial, sans-serif"
     font-size="10px"
     fill="#3a866c"
     text-anchor="middle"
     id="text41"
     transform="rotate(-52.217222)">AI Safeguards</text>
  <!-- Center to Economic -->
  <path
     d="m 311.54029,496.38563 -41.30355,43.5203"
     stroke="#3a866c"
     stroke-width="3"
     fill="none"
     stroke-dasharray="10, 5"
     id="path42" />
  <text
     x="-175.58568"
     y="557.67969"
     font-family="Arial, sans-serif"
     font-size="10px"
     fill="#3a866c"
     text-anchor="middle"
     id="text42"
     transform="rotate(-46.496995)">Ethical Economics</text>
  <!-- Center to Health -->
  <path
     d="m 488.26535,498.05593 42.08631,42.7638"
     stroke="#3a866c"
     stroke-width="3"
     fill="none"
     stroke-dasharray="10, 5"
     id="path43" />
  <text
     x="727.4682"
     y="-8.6458178"
     font-family="Arial, sans-serif"
     font-size="10px"
     fill="#3a866c"
     text-anchor="middle"
     id="text43"
     transform="rotate(45.457478)">Holistic Wellbeing</text>
  <!-- Center to Peace -->
  <path
     d="m 400,218 v 50"
     stroke="#3a866c"
     stroke-width="3"
     fill="none"
     stroke-dasharray="10, 5"
     id="path44" />
  <text
     x="444.82269"
     y="241.51062"
     font-family="Arial, sans-serif"
     font-size="10px"
     fill="#3a866c"
     text-anchor="middle"
     id="text44">Conflict Resolution</text>
  <!-- Center to Education -->
  <path
     d="M 400,562 V 512"
     stroke="#3a866c"
     stroke-width="3"
     fill="none"
     stroke-dasharray="10, 5"
     id="path45" />
  <text
     x="448"
     y="542"
     font-family="Arial, sans-serif"
     font-size="10px"
     fill="#3a866c"
     text-anchor="middle"
     id="text45">Wisdom Integration</text>
  <!-- Diagonal Connections Between Domains -->
  <path
     d="M 250,218 350,168"
     stroke="#5a9378"
     stroke-width="1.5"
     fill="none"
     stroke-dasharray="5, 3"
     opacity="0.6"
     id="path46" />
  <path
     d="m 250,566 100,50"
     stroke="#5a9378"
     stroke-width="1.5"
     fill="none"
     stroke-dasharray="5, 3"
     opacity="0.6"
     id="path47" />
  <path
     d="M 550,218 450,168"
     stroke="#5a9378"
     stroke-width="1.5"
     fill="none"
     stroke-dasharray="5, 3"
     opacity="0.6"
     id="path48" />
  <path
     d="M 550,566 450,616"
     stroke="#5a9378"
     stroke-width="1.5"
     fill="none"
     stroke-dasharray="5, 3"
     opacity="0.6"
     id="path49" />
  <!-- Legend -->
  <g
     transform="translate(400,763)"
     id="g50">
    <rect
       x="-250"
       y="-20"
       width="500"
       height="40"
       rx="10"
       ry="10"
       fill="#ffffff"
       stroke="#3a866c"
       stroke-width="1"
       id="rect49" />
    <!-- Legend items -->
    <line
       x1="-210"
       y1="0"
       x2="-170"
       y2="0"
       stroke="#3a866c"
       stroke-width="3"
       stroke-dasharray="10, 5"
       id="line49" />
    <text
       x="-155"
       y="5"
       font-family="Arial, sans-serif"
       font-size="12px"
       fill="#555555"
       id="text49">Direct Integration Pathways</text>
    <line
       x1="20"
       y1="0"
       x2="60"
       y2="0"
       stroke="#5a9378"
       stroke-width="1.5"
       stroke-dasharray="5, 3"
       opacity="0.6"
       id="line50" />
    <text
       x="75"
       y="5"
       font-family="Arial, sans-serif"
       font-size="12px"
       fill="#555555"
       id="text50">Cross-Domain Connections</text>
  </g>
</svg>
