<?xml version="1.0" encoding="UTF-8" standalone="no"?>
<svg
   viewBox="0 0 800 1120"
   version="1.1"
   id="svg100"
   xmlns="http://www.w3.org/2000/svg"
   xmlns:svg="http://www.w3.org/2000/svg">
  <defs
     id="defs1">
    <!-- Gradient for background -->
    <linearGradient id="posterGradient" x1="0%" y1="0%" x2="100%" y2="100%">
      <stop offset="0%" style="stop-color:#f9f5f8;stop-opacity:1" />
      <stop offset="100%" style="stop-color:#e7d7e3;stop-opacity:1" />
    </linearGradient>
  </defs>
  
  <!-- Background with soft gradient -->
  <rect
     width="800"
     height="1120"
     fill="url(#posterGradient)"
     rx="0"
     ry="0"
     id="rect1" />
     
  <!-- Decorative top element -->
  <path
     d="M0,200 C150,150 300,180 450,120 S650,80 800,120 V0 H0 Z"
     fill="#d9bdd0"
     opacity="0.5"
     id="path1" />
     
  <!-- Decorative bottom element -->
  <path
     d="M0,1000 C200,1050 400,1020 600,1080 S700,1020 800,1050 V1120 H0 Z"
     fill="#d9bdd0"
     opacity="0.5"
     id="path2" />
  
  <!-- Header Section -->
  <rect
     x="100"
     y="80"
     width="600"
     height="120"
     rx="10"
     ry="10"
     fill="#9B6A8F"
     id="rect2" />
     
  <text
     x="400"
     y="150"
     text-anchor="middle"
     font-family="Arial, sans-serif"
     font-size="42"
     font-weight="bold"
     fill="#ffffff"
     id="text1">Religious &amp; Spiritual</text>
     
  <text
     x="400"
     y="190"
     text-anchor="middle"
     font-family="Arial, sans-serif"
     font-size="42"
     font-weight="bold"
     fill="#ffffff"
     id="text2">Dialogue Framework</text>
     
  <!-- Icon/Symbol -->
  <g transform="translate(400, 270)">
    <circle
       cx="0"
       cy="0"
       r="60"
       fill="#ffffff"
       stroke="#9B6A8F"
       stroke-width="3"
       id="circle1" />
       
    <!-- Stylized dialogue icon - conversation bubbles arranged in circle -->
    <g id="dialogue-icon">
      <!-- Bubble 1 -->
      <path
         d="M0,-30 C15,-30 25,-20 25,-5 C25,10 15,20 0,20 C-15,20 -25,10 -25,-5 C-25,-20 -15,-30 0,-30 Z"
         fill="#d9bdd0"
         stroke="#9B6A8F"
         stroke-width="1.5"
         id="path3" />
         
      <!-- Bubble 2 -->
      <path
         d="M20,0 C35,0 45,10 45,25 C45,40 35,50 20,50 C5,50 -5,40 -5,25 C-5,10 5,0 20,0 Z"
         fill="#e7d7e3"
         stroke="#9B6A8F"
         stroke-width="1.5"
         id="path4" />
         
      <!-- Bubble 3 -->
      <path
         d="M-20,0 C-5,0 5,10 5,25 C5,40 -5,50 -20,50 C-35,50 -45,40 -45,25 C-45,10 -35,0 -20,0 Z"
         fill="#e7d7e3"
         stroke="#9B6A8F"
         stroke-width="1.5"
         id="path5" />
         
      <!-- Candle icon in center -->
      <path
         d="M0,-10 L0,15 M-5,15 L5,15 M-3,15 L-3,25 M3,15 L3,25"
         stroke="#9B6A8F"
         stroke-width="2"
         fill="none"
         id="path6" />
         
      <path
         d="M0,-10 C0,-15 -3,-20 0,-25 C3,-20 0,-15 0,-10 Z"
         fill="#9B6A8F"
         id="path7" />
    </g>
  </g>
  
  <!-- Tagline -->
  <text
     x="400"
     y="360"
     text-anchor="middle"
     font-family="Arial, sans-serif"
     font-size="24"
     font-style="italic"
     fill="#9B6A8F"
     id="text3">Weaving Sacred Wisdom into Global Governance</text>
     
  <!-- Event Details Section - Editable text placeholders -->
  <rect
     x="100"
     y="420"
     width="600"
     height="240"
     rx="10"
     ry="10"
     fill="#ffffff"
     stroke="#9B6A8F"
     stroke-width="2"
     id="rect3" />
     
  <text
     x="400"
     y="460"
     text-anchor="middle"
     font-family="Arial, sans-serif"
     font-size="28"
     font-weight="bold"
     fill="#9B6A8F"
     id="text4">JOIN US FOR</text>
     
  <text
     x="400"
     y="510"
     text-anchor="middle"
     font-family="Arial, sans-serif"
     font-size="32"
     font-weight="bold"
     fill="#9B6A8F"
     id="text5">[EVENT TITLE]</text>
     
  <text
     x="400"
     y="560"
     text-anchor="middle"
     font-family="Arial, sans-serif"
     font-size="24"
     fill="#9B6A8F"
     id="text6">[DATE &amp; TIME]</text>
     
  <text
     x="400"
     y="600"
     text-anchor="middle"
     font-family="Arial, sans-serif"
     font-size="24"
     fill="#9B6A8F"
     id="text7">[LOCATION]</text>
     
  <text
     x="400"
     y="640"
     text-anchor="middle"
     font-family="Arial, sans-serif"
     font-size="18"
     fill="#9B6A8F"
     id="text8">[SHORT DESCRIPTION]</text>
     
  <!-- What to Expect Section -->
  <text
     x="150"
     y="710"
     font-family="Arial, sans-serif"
     font-size="26"
     font-weight="bold"
     fill="#9B6A8F"
     id="text9">What to Expect:</text>
     
  <g transform="translate(170, 740)">
    <!-- Bullet Point 1 -->
    <circle cx="-10" cy="15" r="5" fill="#d9bdd0" />
    <text
       x="10"
       y="20"
       font-family="Arial, sans-serif"
       font-size="18"
       fill="#555555"
       id="text10">Dialogue across diverse spiritual traditions</text>
       
    <!-- Bullet Point 2 -->
    <circle cx="-10" cy="50" r="5" fill="#d9bdd0" />
    <text
       x="10"
       y="55"
       font-family="Arial, sans-serif"
       font-size="18"
       fill="#555555"
       id="text11">Exploration of shared ethical values</text>
       
    <!-- Bullet Point 3 -->
    <circle cx="-10" cy="85" r="5" fill="#d9bdd0" />
    <text
       x="10"
       y="90"
       font-family="Arial, sans-serif"
       font-size="18"
       fill="#555555"
       id="text12">Community-building activities</text>
       
    <!-- Bullet Point 4 -->
    <circle cx="-10" cy="120" r="5" fill="#d9bdd0" />
    <text
       x="10"
       y="125"
       font-family="Arial, sans-serif"
       font-size="18"
       fill="#555555"
       id="text13">Practical applications for local challenges</text>
  </g>
  
  <!-- Join the Conversation Section -->
  <rect
     x="150"
     y="890"
     width="500"
     height="80"
     rx="40"
     ry="40"
     fill="#9B6A8F"
     id="rect4" />
     
  <text
     x="400"
     y="940"
     text-anchor="middle"
     font-family="Arial, sans-serif"
     font-size="28"
     font-weight="bold"
     fill="#ffffff"
     id="text14">Join the Conversation!</text>
     
  <!-- Contact Info Section -->
  <text
     x="400"
     y="1020"
     text-anchor="middle"
     font-family="Arial, sans-serif"
     font-size="18"
     fill="#9B6A8F"
     id="text15">For more information:</text>
     
  <text
     x="400"
     y="1050"
     text-anchor="middle"
     font-family="Arial, sans-serif"
     font-size="18"
     fill="#9B6A8F"
     id="text16">[CONTACT INFO / WEBSITE / SOCIAL MEDIA]</text>
     
  <!-- Framework Website Footer -->
  <text
     x="400"
     y="1090"
     text-anchor="middle"
     font-family="Arial, sans-serif"
     font-size="14"
     fill="#9B6A8F"
     id="text17">www.globalgovernanceframework.org/framework/docs/implementation/spiritual</text>
</svg>
