<?xml version="1.0" encoding="UTF-8" standalone="no"?>
<svg
   viewBox="0 0 800 500"
   version="1.1"
   id="svg36"
   sodipodi:docname="structural-flowchart.svg"
   inkscape:version="1.4 (e7c3feb100, 2024-10-09)"
   xmlns:inkscape="http://www.inkscape.org/namespaces/inkscape"
   xmlns:sodipodi="http://sodipodi.sourceforge.net/DTD/sodipodi-0.dtd"
   xmlns="http://www.w3.org/2000/svg"
   xmlns:svg="http://www.w3.org/2000/svg">
  <defs
     id="defs36" />
  <sodipodi:namedview
     id="namedview36"
     pagecolor="#ffffff"
     bordercolor="#000000"
     borderopacity="0.25"
     inkscape:showpageshadow="2"
     inkscape:pageopacity="0.0"
     inkscape:pagecheckerboard="0"
     inkscape:deskcolor="#d1d1d1"
     inkscape:zoom="1.692"
     inkscape:cx="399.8227"
     inkscape:cy="250"
     inkscape:window-width="2520"
     inkscape:window-height="1048"
     inkscape:window-x="0"
     inkscape:window-y="0"
     inkscape:window-maximized="1"
     inkscape:current-layer="svg36" />
  <!-- Background -->
  <rect
     width="800"
     height="500"
     fill="#f8f7f2"
     rx="15"
     ry="15"
     id="rect1" />
  <path
     d="M0,500 C200,450 400,480 600,450 S750,400 800,430 V500 H0 Z"
     fill="#e7f0ea"
     opacity="0.3"
     id="path1" />
  <path
     d="M800,0 C600,50 500,30 300,60 S50,20 0,40 V0 H800 Z"
     fill="#e7f0ea"
     opacity="0.3"
     id="path2" />
  <!-- Title -->
  <g
     transform="translate(400, 40)"
     id="g2">
    <rect
       x="-180"
       y="-25"
       width="360"
       height="40"
       rx="10"
       ry="10"
       fill="#3a866c"
       opacity="0.9"
       id="rect2" />
    <text
       x="0"
       y="5"
       text-anchor="middle"
       font-family="Arial, sans-serif"
       font-size="18"
       font-weight="bold"
       fill="#ffffff"
       id="text2">Structural Flowchart</text>
  </g>
  <!-- Global Council - Top Level -->
  <g
     transform="translate(400, 120)"
     id="g6">
    <rect
       x="-150"
       y="-40"
       width="300"
       height="80"
       rx="10"
       ry="10"
       fill="#ffffff"
       stroke="#3a866c"
       stroke-width="3"
       id="rect3" />
    <rect
       x="-145"
       y="-35"
       width="290"
       height="70"
       rx="8"
       ry="8"
       fill="#f0f7f4"
       stroke="#3a866c"
       stroke-width="1"
       id="rect4" />
    <text
       text-anchor="middle"
       font-family="Arial, sans-serif"
       fill="#3a866c"
       id="text6"><tspan
         x="0"
         y="-12"
         font-size="16"
         font-weight="bold"
         id="tspan4">Global Council (GCRSD)</tspan><tspan
         x="0"
         y="12"
         font-size="12"
         id="tspan5">40 representatives | Hybrid selection</tspan><tspan
         x="0"
         y="30"
         font-size="12"
         id="tspan6">≥40% women | ≥25% youth | Consensus-based</tspan></text>
    <!-- Decorative element -->
    <path
       d="M-130,-25 L-120,-25 M-130,-15 L-110,-15 M-130,-5 L-100,-5"
       stroke="#5a9378"
       stroke-width="2"
       opacity="0.7"
       id="path6" />
  </g>
  <!-- Advisory Board - Side Element -->
  <g
     transform="translate(650, 120)"
     id="g9">
    <rect
       x="-90"
       y="-40"
       width="180"
       height="80"
       rx="10"
       ry="10"
       fill="#ffffff"
       stroke="#5a9378"
       stroke-width="2"
       id="rect6" />
    <rect
       x="-85"
       y="-35"
       width="170"
       height="70"
       rx="8"
       ry="8"
       fill="#f7f9f8"
       stroke="#5a9378"
       stroke-width="1"
       id="rect7" />
    <text
       text-anchor="middle"
       font-family="Arial, sans-serif"
       fill="#3a866c"
       id="text9"><tspan
         x="0"
         y="-12"
         font-size="14"
         font-weight="bold"
         id="tspan7">Advisory Board</tspan><tspan
         x="0"
         y="10"
         font-size="11"
         id="tspan8">Scholars, Ethicists</tspan><tspan
         x="0"
         y="25"
         font-size="11"
         id="tspan9">Independent Oversight</tspan></text>
    <!-- Connection to Global Council -->
    <path
       d="M-90,0 L-160,0"
       stroke="#5a9378"
       stroke-width="2"
       stroke-dasharray="5,3"
       id="path9" />
    <circle
       cx="-90"
       cy="0"
       r="4"
       fill="#5a9378"
       id="circle9" />
  </g>
  <!-- Regional Hubs - Middle Level -->
  <g
     transform="translate(230, 250)"
     id="g13">
    <rect
       x="-130"
       y="-40"
       width="260"
       height="80"
       rx="10"
       ry="10"
       fill="#ffffff"
       stroke="#3a866c"
       stroke-width="2"
       id="rect9" />
    <rect
       x="-125"
       y="-35"
       width="250"
       height="70"
       rx="8"
       ry="8"
       fill="#f0f7f4"
       stroke="#3a866c"
       stroke-width="1"
       id="rect10" />
    <text
       text-anchor="middle"
       font-family="Arial, sans-serif"
       fill="#3a866c"
       id="text12"><tspan
         x="0"
         y="-12"
         font-size="15"
         font-weight="bold"
         id="tspan10">Regional Hubs</tspan><tspan
         x="0"
         y="10"
         font-size="12"
         id="tspan11">Cultural adaptation | Local engagement</tspan><tspan
         x="0"
         y="28"
         font-size="12"
         id="tspan12">Wisdom documentation | Context-specific</tspan></text>
    <!-- Decorative element -->
    <circle
       cx="-105"
       cy="-20"
       r="8"
       fill="#5a9378"
       opacity="0.2"
       id="circle12" />
    <circle
       cx="105"
       cy="20"
       r="8"
       fill="#5a9378"
       opacity="0.2"
       id="circle13" />
  </g>
  <!-- Digital Platform - Middle Level -->
  <g
     transform="translate(570, 250)"
     id="g16">
    <rect
       x="-130"
       y="-40"
       width="260"
       height="80"
       rx="10"
       ry="10"
       fill="#ffffff"
       stroke="#3a866c"
       stroke-width="2"
       id="rect13" />
    <rect
       x="-125"
       y="-35"
       width="250"
       height="70"
       rx="8"
       ry="8"
       fill="#f0f7f4"
       stroke="#3a866c"
       stroke-width="1"
       id="rect14" />
    <text
       text-anchor="middle"
       font-family="Arial, sans-serif"
       fill="#3a866c"
       id="text16"><tspan
         x="0"
         y="-12"
         font-size="15"
         font-weight="bold"
         id="tspan14">Digital Platform</tspan><tspan
         x="0"
         y="10"
         font-size="12"
         id="tspan15">Knowledge repository | Online dialogue</tspan><tspan
         x="0"
         y="28"
         font-size="12"
         id="tspan16">Multilingual access | Offline alternatives</tspan></text>
    <!-- Digital icon -->
    <path
       d="M-105,-20 L-95,-20 M-105,-15 L-90,-15 M-105,-10 L-85,-10"
       stroke="#5a9378"
       stroke-width="1.5"
       id="path16" />
    <rect
       x="-105"
       cy="-5"
       width="25"
       height="15"
       rx="2"
       ry="2"
       fill="none"
       stroke="#5a9378"
       stroke-width="1.5"
       id="rect16" />
  </g>
  <!-- Working Groups - Bottom Level -->
  <g
     transform="translate(150, 380)"
     id="g20">
    <rect
       x="-100"
       y="-35"
       width="200"
       height="70"
       rx="10"
       ry="10"
       fill="#ffffff"
       stroke="#5a9378"
       stroke-width="2"
       id="rect17" />
    <rect
       x="-95"
       y="-30"
       width="190"
       height="60"
       rx="8"
       ry="8"
       fill="#f7f9f8"
       stroke="#5a9378"
       stroke-width="1"
       id="rect18" />
    <text
       text-anchor="middle"
       font-family="Arial, sans-serif"
       fill="#3a866c"
       id="text20"><tspan
         x="0"
         y="-10"
         font-size="14"
         font-weight="bold"
         id="tspan18">Ethics Charter</tspan><tspan
         x="0"
         y="10"
         font-size="11"
         id="tspan19">Shared principles</tspan><tspan
         x="0"
         y="25"
         font-size="11"
         id="tspan20">Values foundation</tspan></text>
  </g>
  <g
     transform="translate(400, 380)"
     id="g23">
    <rect
       x="-100"
       y="-35"
       width="200"
       height="70"
       rx="10"
       ry="10"
       fill="#ffffff"
       stroke="#5a9378"
       stroke-width="2"
       id="rect20" />
    <rect
       x="-95"
       y="-30"
       width="190"
       height="60"
       rx="8"
       ry="8"
       fill="#f7f9f8"
       stroke="#5a9378"
       stroke-width="1"
       id="rect21" />
    <text
       text-anchor="middle"
       font-family="Arial, sans-serif"
       fill="#3a866c"
       id="text23"><tspan
         x="0"
         y="-10"
         font-size="14"
         font-weight="bold"
         id="tspan21">Policy Translation Labs</tspan><tspan
         x="0"
         y="10"
         font-size="11"
         id="tspan22">Spiritual wisdom to policy</tspan><tspan
         x="0"
         y="25"
         font-size="11"
         id="tspan23">Cross-domain application</tspan></text>
  </g>
  <g
     transform="translate(650, 380)"
     id="g26">
    <rect
       x="-100"
       y="-35"
       width="200"
       height="70"
       rx="10"
       ry="10"
       fill="#ffffff"
       stroke="#5a9378"
       stroke-width="2"
       id="rect23" />
    <rect
       x="-95"
       y="-30"
       width="190"
       height="60"
       rx="8"
       ry="8"
       fill="#f7f9f8"
       stroke="#5a9378"
       stroke-width="1"
       id="rect24" />
    <text
       text-anchor="middle"
       font-family="Arial, sans-serif"
       fill="#3a866c"
       id="text26"><tspan
         x="0"
         y="-10"
         font-size="14"
         font-weight="bold"
         id="tspan24">Truth  Reconciliation</tspan><tspan
         x="0"
         y="10"
         font-size="11"
         id="tspan25">Healing historical tensions</tspan><tspan
         x="0"
         y="25"
         font-size="11"
         id="tspan26">Building trust across traditions</tspan></text>
  </g>
  <!-- Connecting Lines -->
  <!-- From Global Council to Regional Hubs -->
  <path
     d="M400,160 L230,210"
     stroke="#3a866c"
     stroke-width="3"
     fill="none"
     id="path26" />
  <polygon
     points="230,210 240,205 238,218"
     fill="#3a866c"
     id="polygon26" />
  <!-- From Global Council to Digital Platform -->
  <path
     d="M400,160 L570,210"
     stroke="#3a866c"
     stroke-width="3"
     fill="none"
     id="path27" />
  <polygon
     points="570,210 560,205 562,218"
     fill="#3a866c"
     id="polygon27" />
  <!-- From Regional Hubs to Working Groups -->
  <path
     d="M230,290 L150,345"
     stroke="#5a9378"
     stroke-width="2"
     fill="none"
     id="path28" />
  <polygon
     points="150,345 160,340 158,353"
     fill="#5a9378"
     id="polygon28" />
  <path
     d="M230,290 L300,345"
     stroke="#5a9378"
     stroke-width="2"
     fill="none"
     id="path29" />
  <polygon
     points="300,345 290,340 292,353"
     fill="#5a9378"
     id="polygon29" />
  <!-- From Digital Platform to Working Groups -->
  <path
     d="M570,290 L500,345"
     stroke="#5a9378"
     stroke-width="2"
     fill="none"
     id="path30" />
  <polygon
     points="500,345 510,340 508,353"
     fill="#5a9378"
     id="polygon30" />
  <path
     d="M570,290 L650,345"
     stroke="#5a9378"
     stroke-width="2"
     fill="none"
     id="path31" />
  <polygon
     points="650,345 640,340 642,353"
     fill="#5a9378"
     id="polygon31" />
  <!-- Horizontal connections between Hubs and Digital Platform -->
  <path
     d="M360,250 L440,250"
     stroke="#5a9378"
     stroke-width="2"
     stroke-dasharray="5,3"
     id="path32" />
  <circle
     cx="360"
     cy="250"
     r="4"
     fill="#5a9378"
     id="circle32" />
  <circle
     cx="440"
     cy="250"
     r="4"
     fill="#5a9378"
     id="circle33" />
  <!-- Cross-connections between Working Groups -->
  <path
     d="M250,380 L300,380"
     stroke="#5a9378"
     stroke-width="1.5"
     stroke-dasharray="4,2"
     id="path33" />
  <path
     d="M500,380 L550,380"
     stroke="#5a9378"
     stroke-width="1.5"
     stroke-dasharray="4,2"
     id="path34" />
  <!-- Legend -->
  <rect
     x="76.761955"
     y="440.03836"
     width="591.07025"
     height="39.92326"
     rx="11.821404"
     ry="9.9808149"
     fill="#ffffff"
     stroke="#3a866c"
     stroke-width="1.08622"
     id="rect34" />
  <line
     x1="86.228439"
     y1="460"
     x2="107.533"
     y2="460"
     stroke="#3a866c"
     stroke-width="3.09543"
     id="line34" />
  <polygon
     points="-215,-3 -215,3 -210,0 "
     fill="#3a866c"
     id="polygon34"
     transform="matrix(1.065228,0,0,0.99944175,331.23088,460)" />
  <text
     x="114.47775"
     y="480.0571"
     font-family="Arial, sans-serif"
     font-size="12.3817px"
     fill="#555555"
     id="text34"
     transform="scale(1.032387,0.96862901)"
     style="stroke-width:1.03181">Primary Governance Relationships</text>
  <line
     x1="329.96948"
     y1="460"
     x2="351.27405"
     y2="460"
     stroke="#5a9378"
     stroke-width="2.06362"
     stroke-dasharray="5, 3"
     id="line35" />
  <ellipse
     cx="351.27405"
     cy="460"
     fill="#5a9378"
     id="circle35"
     rx="3.195684"
     ry="2.9983253"
     style="stroke-width:1.03181" />
  <text
     x="350.57233"
     y="480.0571"
     font-family="Arial, sans-serif"
     font-size="12.3817px"
     fill="#555555"
     id="text35"
     transform="scale(1.032387,0.96862898)"
     style="stroke-width:1.03181">Advisory and Collaborative Links</text>
  <line
     x1="553.66736"
     y1="460"
     x2="574.97192"
     y2="460"
     stroke="#5a9378"
     stroke-width="1.54772"
     stroke-dasharray="4, 2"
     id="line36" />
  <text
     x="567.25256"
     y="480.0571"
     font-family="Arial, sans-serif"
     font-size="12.3817px"
     fill="#555555"
     id="text36"
     transform="scale(1.032387,0.96862898)"
     style="stroke-width:1.03181">Coordination</text>
</svg>
